<svg xmlns="http://www.w3.org/2000/svg" width="88.202" height="99.804"><g data-name="Grupo 1019"><g data-name="Trazado 1376" fill="#fab102" stroke="#fab102"><path d="M1.5 72.27V27.533c0-1.3.7-2.511 1.828-3.16L42.285 1.985a3.657 3.657 0 013.632 0l38.956 22.388a3.654 3.654 0 011.829 3.16V72.27c0 1.301-.7 2.512-1.829 3.16L45.917 97.82a3.657 3.657 0 01-3.632 0L3.328 75.43A3.654 3.654 0 011.5 72.27z"/><path d="M85.202 27.533a2.15 2.15 0 00-1.076-1.859L45.17 3.285a2.152 2.152 0 00-2.138 0L4.076 25.674A2.15 2.15 0 003 27.534V72.27a2.15 2.15 0 001.076 1.86l38.956 22.388c.66.38 1.478.38 2.138 0L84.126 74.13a2.15 2.15 0 001.076-1.86V27.533m3 0V72.27a5.145 5.145 0 01-2.581 4.46L46.664 99.12a5.145 5.145 0 01-5.127 0L2.581 76.73A5.145 5.145 0 010 72.27V27.533c0-1.841.984-3.542 2.581-4.46L41.537.684a5.145 5.145 0 015.127 0l38.957 22.389a5.145 5.145 0 012.581 4.46z" fill="#fff"/></g><g data-name="Grupo 595" fill="#fff"><path data-name="Trazado 1720" d="M65.485 74.454H17.477a1.466 1.466 0 01-1.476-1.452V61.139a1.466 1.466 0 011.476-1.453h4.111a.812.812 0 110 1.624h-3.961v11.517h47.8l5.323-5.633-5.333-5.884H25.085a.812.812 0 110-1.624h40.39a1.5 1.5 0 011.1.486l5.492 6.058a1.427 1.427 0 01-.019 1.955l-5.482 5.8a1.485 1.485 0 01-1.085.467m-.009-13.144z"/><path data-name="Trazado 1721" d="M54.694 57.489H17.477a1.466 1.466 0 01-1.476-1.453V44.174a1.465 1.465 0 011.476-1.453h4.113a.814.814 0 010 1.627h-3.963v11.516h37.01l5.323-5.637-5.333-5.879H25.085a.814.814 0 010-1.627h29.6a1.5 1.5 0 011.108.488l5.492 6.058a1.426 1.426 0 01-.021 1.954l-5.481 5.8a1.5 1.5 0 01-1.085.467m-.013-13.141z"/><path data-name="Trazado 1722" d="M44.227 40.769h-26.75A1.467 1.467 0 0116 39.314V27.453A1.466 1.466 0 0117.477 26h4.11a.812.812 0 110 1.624h-3.96v11.517h26.55l5.319-5.635-5.328-5.882H25.085a.812.812 0 110-1.624h19.142a1.5 1.5 0 011.107.488l5.488 6.057a1.431 1.431 0 01-.019 1.955l-5.483 5.8a1.485 1.485 0 01-1.086.468m-.008-13.145z"/><path data-name="Trazado 1723" d="M36.681 36.062l2.58-5.829a1 1 0 01.949-.642h.1a.994.994 0 01.945.642l2.582 5.829a.865.865 0 01.081.328.772.772 0 01-.772.782.833.833 0 01-.782-.56l-.5-1.164h-3.257l-.519 1.216a.8.8 0 01-.75.508.752.752 0 01-.751-.762.868.868 0 01.094-.347m4.58-2.053l-1.026-2.445-1.028 2.445z"/><path data-name="Trazado 1724" d="M47.99 47.257a.806.806 0 01.811-.816h2.621a2.678 2.678 0 011.938.658 1.693 1.693 0 01.509 1.258v.021a1.722 1.722 0 01-.973 1.6 1.811 1.811 0 011.384 1.818v.02c0 1.355-1.1 2.032-2.768 2.032h-2.71a.806.806 0 01-.811-.812zm3.084 2.177c.721 0 1.178-.232 1.178-.782v-.02c0-.488-.382-.762-1.069-.762h-1.607v1.565zm.437 2.982c.719 0 1.153-.254 1.153-.8v-.022c0-.5-.373-.8-1.206-.8h-1.883v1.629z"/><path data-name="Trazado 1725" d="M58.775 67.107v-.021a3.762 3.762 0 013.858-3.828 3.9 3.9 0 012.472.753.81.81 0 01.321.647.8.8 0 01-.8.789.819.819 0 01-.488-.16 2.453 2.453 0 00-1.51-.527 2.195 2.195 0 00-2.15 2.305v.021a2.2 2.2 0 002.15 2.324 2.381 2.381 0 001.608-.579.755.755 0 011.244.571.767.767 0 01-.276.583 3.9 3.9 0 01-6.427-2.877"/></g></g></svg>