<svg xmlns="http://www.w3.org/2000/svg" width="88.202" height="99.848"><g data-name="Grupo 1063"><g data-name="Trazado 1814" fill="#6c757d"><path d="M1.5 72.376V27.472a3.51 3.51 0 011.756-3.035l39.1-22.472a3.512 3.512 0 013.489 0l39.101 22.472a3.509 3.509 0 011.756 3.035v44.904a3.51 3.51 0 01-1.756 3.035L45.845 97.882a3.512 3.512 0 01-3.488 0L3.256 75.411A3.509 3.509 0 011.5 72.376z"/><path d="M85.202 27.472c0-.714-.384-1.379-1.003-1.734L45.097 3.266a2.007 2.007 0 00-1.993 0l-39.1 22.472A2.005 2.005 0 003 27.472v44.904c0 .714.384 1.378 1.003 1.734l39.101 22.472a2.007 2.007 0 001.993 0L84.2 74.11a2.005 2.005 0 001.003-1.734V27.472m3 0v44.904a5 5 0 01-2.509 4.335l-39.1 22.472a5 5 0 01-4.983 0L2.508 76.71A5 5 0 010 72.376V27.472a5 5 0 012.508-4.335L41.61.665a5 5 0 014.982 0l39.101 22.472a5 5 0 012.509 4.335z" stroke="#6c757d" fill="#fff"/></g><g data-name="Grupo 808" fill="#fff"><path d="M20 44h8v-8h-8zm0 10h8v-8h-8zm10 0h8v-8h-8zm10 0h8v-8h-8zM30 44h8v-8h-8zm10-8v8h8v-8zM20 64h8v-8h-8zm10 0h8v-8h-8zm10 0h8v-8h-8zm10-28v8h8v-8z" opacity=".5"/><path d="M50 60.252v3.75h3.75l11.06-11.06-3.75-3.75zm17.71-10.21a1 1 0 000-1.41l-2.34-2.34a1 1 0 00-1.41 0l-1.83 1.83 3.75 3.75 1.83-1.83z"/><path data-name="Rectángulo 1624" d="M20 36h8v8h-8z"/></g></g></svg>