<svg xmlns="http://www.w3.org/2000/svg" width="88.202" height="99.804"><g data-name="Grupo 1064"><g data-name="Trazado 1376" fill="#6c757d"><path d="M1.5 72.27V27.533c0-1.3.7-2.511 1.828-3.16L42.285 1.985a3.657 3.657 0 013.632 0l38.956 22.388a3.654 3.654 0 011.829 3.16V72.27c0 1.301-.7 2.512-1.829 3.16L45.917 97.82a3.657 3.657 0 01-3.632 0L3.328 75.43A3.654 3.654 0 011.5 72.27z"/><path d="M85.202 27.533a2.15 2.15 0 00-1.076-1.859L45.17 3.285a2.152 2.152 0 00-2.138 0L4.076 25.674A2.15 2.15 0 003 27.534V72.27a2.15 2.15 0 001.076 1.86l38.956 22.388c.66.38 1.478.38 2.138 0L84.126 74.13a2.15 2.15 0 001.076-1.86V27.533m3 0V72.27a5.145 5.145 0 01-2.581 4.46L46.664 99.12a5.145 5.145 0 01-5.127 0L2.581 76.73A5.145 5.145 0 010 72.27V27.533c0-1.841.984-3.542 2.581-4.46L41.537.684a5.145 5.145 0 015.127 0l38.957 22.389a5.145 5.145 0 012.581 4.46z" stroke="#6c757d" fill="#fff"/></g><g fill="#fff"><path data-name="Trazado 1894" d="M60.296 36.97H48.172v3.949h4.011v2.688h-4.011v2.627h3.97v2.647h-3.97v2.643h3.97v2.647h-3.97v2.653h3.97v2.647h-3.97v3.97h12.124a1.134 1.134 0 001.109-1.151V38.124a1.133 1.133 0 00-1.109-1.154zm-1.538 22.5h-5.293v-2.646h5.293zm0-5.293h-5.293v-2.653h5.293zm0-5.293h-5.293v-2.647h5.293zm0-5.293h-5.293v-2.647h5.293z"/><path data-name="Trazado 1895" d="M27 36.823v26.76L46.849 67.4V33zm12.555 20.1l-2.309-4.365a3.872 3.872 0 01-.271-.9h-.036a6.794 6.794 0 01-.31.936l-2.317 4.331h-3.6l4.271-6.7-3.908-6.7h3.677l1.916 4.015a7.021 7.021 0 01.4 1.13h.037q.113-.393.421-1.168l2.13-3.982h3.364L39 50.165l4.131 6.758z"/></g></g></svg>