<svg xmlns="http://www.w3.org/2000/svg" width="88.202" height="99.804"><g data-name="Grupo 1028"><g data-name="Trazado 1376" fill="#2e58a6" stroke="#2e58a6"><path d="M1.5 72.27V27.533c0-1.3.7-2.511 1.828-3.16L42.285 1.985a3.657 3.657 0 013.632 0l38.956 22.388a3.654 3.654 0 011.829 3.16V72.27c0 1.301-.7 2.512-1.829 3.16L45.917 97.82a3.657 3.657 0 01-3.632 0L3.328 75.43A3.654 3.654 0 011.5 72.27z"/><path d="M85.202 27.533a2.15 2.15 0 00-1.076-1.859L45.17 3.285a2.152 2.152 0 00-2.138 0L4.076 25.674A2.15 2.15 0 003 27.534V72.27a2.15 2.15 0 001.076 1.86l38.956 22.388c.66.38 1.478.38 2.138 0L84.126 74.13a2.15 2.15 0 001.076-1.86V27.533m3 0V72.27a5.145 5.145 0 01-2.581 4.46L46.664 99.12a5.145 5.145 0 01-5.127 0L2.581 76.73A5.145 5.145 0 010 72.27V27.533c0-1.841.984-3.542 2.581-4.46L41.537.684a5.145 5.145 0 015.127 0l38.957 22.389a5.145 5.145 0 012.581 4.46z" fill="#fff"/></g><g data-name="009-electric-car"><g data-name="Grupo 579"><path data-name="Trazado 1706" d="M37.155 36.52h11.686a6.828 6.828 0 006.6 5.112H58.8a1.7 1.7 0 001.7-1.7v-.179h3.408a1.704 1.704 0 100-3.408h-3.399v-2.552h3.408a1.704 1.704 0 100-3.408h-3.408v-.681a1.7 1.7 0 00-1.7-1.7h-3.368a6.828 6.828 0 00-6.6 5.112H38.014A16.033 16.033 0 0024.2 41.353a22.616 22.616 0 00-2.2 9.76v11.98a5.118 5.118 0 005.112 5.112h1.571a5.111 5.111 0 009.637 0h4.3a1.704 1.704 0 000-3.408h-4.3a5.111 5.111 0 00-9.637 0h-1.571a1.706 1.706 0 01-1.7-1.7v-4.095a8.944 8.944 0 01.069-1.106l29.319-.014 5.114 1.9h.008a3.517 3.517 0 012.29 3.287v1.721h-3.7a5.112 5.112 0 100 3.408h5.4a1.7 1.7 0 001.7-1.7v-3.4a6.885 6.885 0 00-4.512-6.511l-5.809-2.16-10.219-7.752a5.141 5.141 0 00-3.09-1.04H30.008a5.079 5.079 0 00-4.033 1.971 1.7 1.7 0 00-.211.352l-.152.34a19.082 19.082 0 011.471-5.068c4.317-6.677 10.072-6.71 10.072-6.71zm18.286-5.112H57.1v6.816h-1.66a3.408 3.408 0 110-6.816zM33.5 64.797a1.7 1.7 0 11-1.7 1.7 1.706 1.706 0 011.7-1.7zm20.191 3.408a1.7 1.7 0 111.7-1.7 1.706 1.706 0 01-1.698 1.7zM37.165 49.044h4.817a1.714 1.714 0 011.03.346l6.72 5.1H37.165zm-8.388.526a1.691 1.691 0 011.232-.526h3.749v5.445h-7.179z" fill="#fff" stroke="#2e58a6"/></g></g></g></svg>