<svg xmlns="http://www.w3.org/2000/svg" width="88.202" height="99.804"><g data-name="Grupo 1027"><g data-name="Trazado 1386" fill="#fb1c0b" stroke="#fb1c0b"><path d="M1.5 72.27V27.533c0-1.3.7-2.511 1.828-3.16L42.285 1.985a3.657 3.657 0 013.632 0l38.956 22.388a3.654 3.654 0 011.829 3.16V72.27c0 1.301-.7 2.512-1.829 3.16L45.917 97.82a3.657 3.657 0 01-3.632 0L3.328 75.43A3.654 3.654 0 011.5 72.27z"/><path d="M85.202 27.533a2.15 2.15 0 00-1.076-1.859L45.17 3.285a2.152 2.152 0 00-2.138 0L4.076 25.674A2.15 2.15 0 003 27.534V72.27a2.15 2.15 0 001.076 1.86l38.956 22.388c.66.38 1.478.38 2.138 0L84.126 74.13a2.15 2.15 0 001.076-1.86V27.533m3 0V72.27a5.145 5.145 0 01-2.581 4.46L46.664 99.12a5.145 5.145 0 01-5.127 0L2.581 76.73A5.145 5.145 0 010 72.27V27.533c0-1.841.984-3.542 2.581-4.46L41.537.684a5.145 5.145 0 015.127 0l38.957 22.389a5.145 5.145 0 012.581 4.46z" fill="#fff"/></g><g fill="#fff"><path data-name="Trazado 1614" d="M68.606 48.903h-2.875a3.712 3.712 0 01.5-1.578l1.576-2.641a1.68 1.68 0 00-1.439-2.542H44.419a3.381 3.381 0 10-6.682 0H21.581a1.681 1.681 0 00-1.435 2.545l1.576 2.639a3.709 3.709 0 01.5 1.579h-2.876a2.9 2.9 0 100 5.8h2.9v6.568a5.983 5.983 0 005.962 5.99h1.438c.324.512.752 1.069 1.27 1.736.25.322.524.674.817 1.062l.582.771.771-.583c1.526-1.153 2.466-2.015 2.791-2.987h6.039l.14.181c.387.5.813 1.047 1.268 1.651l.582.771.771-.582a28.894 28.894 0 002.453-2.021h5.456c.323.512.752 1.069 1.269 1.736.25.321.523.673.817 1.062l.583.771.771-.582c1.527-1.153 2.467-2.015 2.791-2.987h.929a5.982 5.982 0 005.96-5.99v-6.569h2.9a2.9 2.9 0 000-5.8zm-28.978-7.244a1.45 1.45 0 112.9 0 1.4 1.4 0 01-.087.483h-2.726a1.391 1.391 0 01-.087-.483zm-20.282 11.11a.966.966 0 110-1.932h2.9v1.932zm13.335 15.344l-.236-.3a13.767 13.767 0 01-1.374-1.954 1.91 1.91 0 01-.057-.123 1.235 1.235 0 01-.055-.168.6.6 0 01.026-.317.834.834 0 01.064-.149 1.4 1.4 0 01.084-.138 2.924 2.924 0 01.212-.263c.021-.024.036-.044.059-.069.121-.128.258-.261.409-.4s.32-.281.52-.444l.236.3c.4.518.76.98 1.027 1.374a5.1 5.1 0 01.315.519l.014.027a1.412 1.412 0 01.138.387.53.53 0 01.009.146c-.053.387-.679.984-1.392 1.565zm11.929-8.261l.164.211a17.386 17.386 0 012.076 3.03l.03.069a2.469 2.469 0 01.1.274c0 .011.006.023.009.034a1.5 1.5 0 01.024.718c-.012.045-.019.089-.036.134l-.027.074a3.538 3.538 0 01-.656.958c-.077.083-.157.168-.244.257l-.2.2c-.43.413-.96.859-1.571 1.339l-.694-.9-.212-.272-.217-.281-.384-.5-.1-.132c-.11-.146-.215-.286-.315-.424l-.115-.158q-.145-.2-.272-.39c-.028-.04-.053-.08-.08-.12a9.707 9.707 0 01-.282-.452 4.26 4.26 0 01-.2-.378l-.01-.025a1.946 1.946 0 01-.239-1.061c.11-.821 1.163-1.844 2.765-3.1.242.317.474.615.693.9zm11.01 8.261l-.236-.3a13.586 13.586 0 01-1.379-1.962l-.05-.109a1.155 1.155 0 01-.063-.193.612.612 0 01.031-.29.834.834 0 01.066-.155c.024-.042.05-.088.082-.135a2.78 2.78 0 01.213-.265c.021-.023.034-.042.058-.068.121-.129.259-.262.41-.4s.32-.28.52-.441l.137.177.1.126.082.105c.145.187.284.367.415.539l.08.1c.161.215.307.414.433.6l.026.038a5.059 5.059 0 01.306.5l.018.035a1.391 1.391 0 01.137.384.533.533 0 01.009.146c-.055.385-.681.982-1.395 1.563zm8.157-6.845a4.049 4.049 0 01-4.03 4.058h-1.071c-.008-.018-.02-.037-.028-.054a5.323 5.323 0 00-.303-.558 10.202 10.202 0 00-.274-.418c-.033-.047-.066-.1-.1-.144a22.55 22.55 0 00-.344-.469l-.1-.136-.343-.446-.15-.2c-.25-.321-.523-.672-.816-1.06l-.583-.768-.771.583a11.987 11.987 0 00-2.263 2.047c-.039.052-.086.1-.121.155-.047.067-.084.136-.126.2s-.095.153-.134.23-.064.149-.094.223-.057.142-.078.214a2.354 2.354 0 00-.056.249c-.008.04-.021.079-.027.118s0 .068 0 .1-.016.082-.018.125h-3.301a3.657 3.657 0 00.168-.406c.008-.024.012-.048.02-.071a3.173 3.173 0 00.116-.5c0-.016.009-.031.011-.047s0-.021 0-.032a2.991 2.991 0 00.018-.545c0-.057-.011-.114-.017-.171a4.057 4.057 0 00-.05-.313 8.271 8.271 0 00-1.665-3.115 33.147 33.147 0 00-.359-.478c-.095-.124-.194-.255-.294-.383s-.213-.276-.321-.417l-.14-.181c-.387-.5-.812-1.047-1.268-1.651l-.581-.77-.771.582q-.49.369-.926.714c-2.031 1.608-3.17 2.84-3.358 4.263-.006.046 0 .092 0 .138a3.084 3.084 0 00-.013.378c0 .079.008.158.016.238a3.343 3.343 0 00.055.343 4.732 4.732 0 00.483 1.275c.047.09.095.181.147.273a11.795 11.795 0 00.466.736c.031.046.059.091.092.137h-4.736c-.01-.022-.025-.046-.036-.068a4.944 4.944 0 00-.302-.552 7.663 7.663 0 00-.265-.4 4.883 4.883 0 01-.1-.15c-.114-.16-.238-.328-.369-.5l-.057-.076c-.16-.21-.329-.43-.512-.665l-.084-.108c-.229-.295-.469-.6-.733-.954l-.582-.772-.771.582a12.031 12.031 0 00-2.265 2.048c-.04.051-.085.1-.121.155-.047.068-.085.137-.126.207s-.095.152-.132.228-.064.149-.094.224-.056.142-.077.213a2.462 2.462 0 00-.056.249c-.008.039-.021.078-.027.118s0 .068 0 .1a1.233 1.233 0 00-.018.124h-.8a4.048 4.048 0 01-4.03-4.058V48.903h-.03a5.623 5.623 0 00-.776-2.568l-1.348-2.262h43.894l-1.349 2.262a5.646 5.646 0 00-.775 2.567h-.022v12.363zm4.83-8.5h-2.9v-1.932h2.9a.966.966 0 010 1.932zm0 0"/><path data-name="Trazado 1615" d="M46.874 32.484a3.381 3.381 0 10-3.381-3.381 3.384 3.384 0 003.381 3.381zm0-4.829a1.449 1.449 0 11-1.449 1.449 1.451 1.451 0 011.449-1.449zm0 0"/><path data-name="Trazado 1616" d="M59.913 37.314a1.932 1.932 0 11-1.932-1.932 1.932 1.932 0 011.932 1.932zm0 0"/><path data-name="Trazado 1617" d="M30.935 37.314a1.917 1.917 0 01-.367 1.134.966.966 0 001.565 1.133 3.839 3.839 0 00.734-2.267v-.032a.951.951 0 00-.966-.948.98.98 0 00-.966.98zm0 0"/><path data-name="Trazado 1618" d="M29.004 35.387a1.914 1.914 0 011.118.356.966.966 0 101.122-1.573 3.84 3.84 0 00-2.241-.715h-.025a.954.954 0 00-.953.966.975.975 0 00.978.966zm0 0"/><path data-name="Trazado 1619" d="M26.106 38.289a.972.972 0 00.966-.975 1.926 1.926 0 01.362-1.127.966.966 0 10-1.572-1.123 3.853 3.853 0 00-.722 2.25v.017a.959.959 0 00.966.957zm0 0"/><path data-name="Trazado 1620" d="M26.527 39.1a.966.966 0 00.219 1.348 3.837 3.837 0 002.257.728h.009a.966.966 0 00-.008-1.932 1.912 1.912 0 01-1.128-.364.966.966 0 00-1.349.22zm0 0"/><path data-name="Trazado 1621" d="M56.049 71.121H30.936a.966.966 0 100 1.932H56.05a.966.966 0 100-1.932zm0 0"/><path data-name="Trazado 1622" d="M60.879 46.973h-25.04a.966.966 0 000 1.932h25.04a.966.966 0 000-1.932zm0 0"/><path data-name="Trazado 1623" d="M31.734 46.973h-4.662a.966.966 0 000 1.932h4.663a.966.966 0 100-1.932zm0 0"/></g></g></svg>