<svg xmlns="http://www.w3.org/2000/svg" width="88.202" height="101.382"><g data-name="Grupo 1026"><g data-name="Polígono 1" fill="#fb1c0b" stroke="#fb1c0b"><path d="M1.5 73.143V28.239a3.51 3.51 0 011.756-3.035l39.1-22.472a3.512 3.512 0 013.489 0l39.101 22.472a3.509 3.509 0 011.756 3.035v44.904a3.51 3.51 0 01-1.756 3.035L45.845 98.649a3.512 3.512 0 01-3.488 0L3.256 76.178A3.509 3.509 0 011.5 73.143z"/><path d="M85.202 28.239c0-.714-.384-1.379-1.003-1.734L45.097 4.033a2.007 2.007 0 00-1.993 0l-39.1 22.472A2.005 2.005 0 003 28.239v44.904c0 .714.384 1.378 1.003 1.734l39.101 22.472a2.007 2.007 0 001.993 0L84.2 74.877a2.005 2.005 0 001.003-1.734V28.239m3 0v44.904a5 5 0 01-2.509 4.335l-39.1 22.472a5 5 0 01-4.983 0L2.508 77.478A5 5 0 010 73.143V28.239a5 5 0 012.508-4.335L41.61 1.432a5 5 0 014.982 0l39.101 22.472a5 5 0 012.509 4.335z" fill="#fff"/></g><g data-name="Grupo 546"><g data-name="Grupo 504"><g data-name="Grupo 503"><path data-name="Trazado 1592" d="M26.106 22.685a2.857 2.857 0 102.857 2.857 2.861 2.861 0 00-2.857-2.857zm0 4.574a1.717 1.717 0 111.717-1.717 1.719 1.719 0 01-1.717 1.717z" fill="#fff"/></g></g><g data-name="Grupo 506"><g data-name="Grupo 505"><path data-name="Trazado 1593" d="M26.106 19.636a.57.57 0 00-.57.57v.762a.57.57 0 101.14 0v-.762a.57.57 0 00-.57-.57z" fill="#fff"/></g></g><g data-name="Grupo 508"><g data-name="Grupo 507"><path data-name="Trazado 1594" d="M23.276 21.905l-.539-.539a.57.57 0 10-.806.806l.539.539a.57.57 0 00.806-.807z" fill="#fff"/></g></g><g data-name="Grupo 510"><g data-name="Grupo 509"><path data-name="Trazado 1595" d="M21.533 24.973h-.762a.57.57 0 000 1.14h.762a.57.57 0 000-1.14z" fill="#fff"/></g></g><g data-name="Grupo 512"><g data-name="Grupo 511"><path data-name="Trazado 1596" d="M23.276 28.374a.57.57 0 00-.807 0l-.539.539a.57.57 0 10.807.806l.539-.539a.57.57 0 000-.806z" fill="#fff"/></g></g><g data-name="Grupo 514"><g data-name="Grupo 513"><path data-name="Trazado 1597" d="M26.106 29.547a.57.57 0 00-.57.57v.762a.57.57 0 101.14 0v-.762a.57.57 0 00-.57-.57z" fill="#fff"/></g></g><g data-name="Grupo 516"><g data-name="Grupo 515"><path data-name="Trazado 1598" d="M30.284 28.914l-.539-.539a.57.57 0 00-.807.806l.539.539a.57.57 0 00.807-.806z" fill="#fff"/></g></g><g data-name="Grupo 518"><g data-name="Grupo 517"><path data-name="Trazado 1599" d="M31.444 24.973h-.762a.57.57 0 100 1.14h.762a.57.57 0 100-1.14z" fill="#fff"/></g></g><g data-name="Grupo 520"><g data-name="Grupo 519"><path data-name="Trazado 1600" d="M30.283 21.366a.57.57 0 00-.806 0l-.539.539a.57.57 0 10.806.806l.539-.539a.57.57 0 000-.806z" fill="#fff"/></g></g><g data-name="Grupo 522"><g data-name="Grupo 521"><path data-name="Trazado 1601" d="M19.437 77.858h-5.529a.57.57 0 100 1.14h24.4a.57.57 0 100-1.14H19.437z" fill="#fff"/></g></g><g data-name="Grupo 545"><g data-name="Grupo 544"><path data-name="Trazado 1613" d="M74.203 66.255a.6.6 0 00-.031-.157c-.007-.019-.011-.038-.02-.056a.6.6 0 00-.121-.177l-9.681-9.681a.605.605 0 00-.425-.177H50.87a3.562 3.562 0 00.345-1.513 3.636 3.636 0 00-3.045-3.583 3.275 3.275 0 00.019-.35 3.63 3.63 0 00-7.261 0 3.274 3.274 0 00.019.35 3.612 3.612 0 00-2.452 5.55 3.592 3.592 0 00.091 4.084 3.6 3.6 0 00.267 4.546l-.774.774a.6.6 0 00-.176.428v12.1a.605.605 0 00.605.605h35.095a.605.605 0 00.605-.605v-12.1c-.005-.013-.005-.025-.005-.038zm-2.06-.568h-3.725l-2.269-2.42h3.57zm-13.67-5.445h3.183l1.7 1.815h-3.181zm.044 1.815h-4.026l-1.815-1.815h4.139zm5.975 1.21l2.269 2.42h-3.183l-2.269-2.42zm4.02-1.21h-3.5l-1.7-1.815h3.391zm-4.84-4.84l1.815 1.815h-3.309l-1.7-1.815zm-4.852 0l1.7 1.815h-3.182l-1.7-1.815zm-4.84 0l1.7 1.815h-4.215l-1.815-1.815zm-14.27-1.15a2.394 2.394 0 01-.6-1.573 2.42 2.42 0 012.42-2.42h.006c.039.005.079.01.121.012a.605.605 0 00.609-.787 2.42 2.42 0 114.58 0 .605.605 0 00.609.787.987.987 0 00.126-.012 2.42 2.42 0 012.42 2.42 2.386 2.386 0 01-.545 1.513H48.19a.605.605 0 00-.206.04c-.007 0-.016 0-.024.006a.227.227 0 01-.033.021.6.6 0 00-.134.09c-.009.008-.022.011-.031.021l-2.6 2.6v-6.409a.605.605 0 00-1.21 0v3.38l-1.385-1.387a.605.605 0 00-.856.856l2.243 2.242v2.524l-.605.605-.782-.782a.605.605 0 00-.856.856l.782.782-2.79 2.784a2.381 2.381 0 01-.594-1.573 2.406 2.406 0 01.7-1.694.605.605 0 000-.847 2.391 2.391 0 01-.1-3.267.605.605 0 00.001-.788zm10.9 21.721h-4.841v-7.261h4.84zm6.656 0H51.82v-7.861a.605.605 0 00-.605-.605h-6.051a.605.605 0 00-.605.605v7.866h-5.445v-11.25l1.041-1.041 4.832-4.832 3.2-3.2 9.076 9.076zm-1.563-14.521h3.95l2.269 2.42h-3.8zm17.3 14.521H58.476v-10.89h14.521z" fill="#fff"/></g></g><g data-name="Grupo 596" fill="#fff"><path data-name="Trazado 1726" d="M28.536 77.969V41.136a.85.85 0 111.7 0v36.833a.85.85 0 01-1.7 0"/><path data-name="Trazado 1727" d="M15.176 41.298a.635.635 0 01-.285-1.2l9.187-4.733.295-.072 20.038.122a.636.636 0 01.287 1.2l-9.194 4.73-.293.067zm20.04-.521v-.635zm-17.444-.737l17.289.1 6.75-3.477-17.287-.1z"/><path data-name="Trazado 1728" d="M20.876 40.938a.63.63 0 01.257-.861l8.2-4.459a.637.637 0 11.607 1.119l-8.2 4.456a.619.619 0 01-.3.079.631.631 0 01-.56-.334"/><path data-name="Trazado 1729" d="M28.74 40.973a.638.638 0 01.273-.86l8.852-4.6a.635.635 0 01.584 1.127l-8.851 4.6a.691.691 0 01-.3.07.628.628 0 01-.562-.342"/><path data-name="Trazado 1730" d="M39.929 39.116l-19.9-.12a.636.636 0 11.005-1.271l19.9.12c.35 0-.016.288-.021.642 0 0-.556.629-.9.629h.915z"/></g></g></g></svg>