<svg xmlns="http://www.w3.org/2000/svg" width="88.202" height="101.382"><g data-name="Grupo 1017"><g data-name="Polígono 1" fill="#fab102" stroke="#fab102"><path d="M1.5 73.143V28.239a3.51 3.51 0 011.756-3.035l39.1-22.472a3.512 3.512 0 013.489 0l39.101 22.472a3.509 3.509 0 011.756 3.035v44.904a3.51 3.51 0 01-1.756 3.035L45.845 98.649a3.512 3.512 0 01-3.488 0L3.256 76.178A3.509 3.509 0 011.5 73.143z"/><path d="M85.202 28.239c0-.714-.384-1.379-1.003-1.734L45.097 4.033a2.007 2.007 0 00-1.993 0l-39.1 22.472A2.005 2.005 0 003 28.239v44.904c0 .714.384 1.378 1.003 1.734l39.101 22.472a2.007 2.007 0 001.993 0L84.2 74.877a2.005 2.005 0 001.003-1.734V28.239m3 0v44.904a5 5 0 01-2.509 4.335l-39.1 22.472a5 5 0 01-4.983 0L2.508 77.478A5 5 0 010 73.143V28.239a5 5 0 012.508-4.335L41.61 1.432a5 5 0 014.982 0l39.101 22.472a5 5 0 012.509 4.335z" fill="#fff"/></g><g data-name="Grupo 547"><g data-name="Grupo 492"><g data-name="Grupo 491"><path data-name="Trazado 1579" d="M43.828 60.299a.449.449 0 00-.449.449v7.18a.45.45 0 10.9 0v-7.18a.449.449 0 00-.451-.449z" fill="#fff"/></g></g><g data-name="Grupo 494"><g data-name="Grupo 493"><path data-name="Trazado 1580" d="M42.025 67.844l-1.346-7.18a.449.449 0 00-.888.127q0 .019.007.038l1.346 7.18a.448.448 0 10.881-.165z" fill="#fff"/></g></g><g data-name="Grupo 496"><g data-name="Grupo 495"><path data-name="Trazado 1581" d="M47.521 60.292a.449.449 0 00-.539.336c0 .012-.005.025-.007.038l-1.346 7.18a.448.448 0 10.881.166l1.346-7.18a.449.449 0 00-.335-.54z" fill="#fff"/></g></g><g data-name="Grupo 498"><g data-name="Grupo 497"><path data-name="Trazado 1582" d="M52.151 58.504a8.3 8.3 0 10-16.3 0c-.019-.035.225.9.225.9s.235.672.383 1l3.328 9.848v2.619a1.346 1.346 0 001.346 1.346h.961a1.786 1.786 0 003.462 0h.961a1.346 1.346 0 001.349-1.353v-2.612l3.533-9.563c.209-.414.522-1.287.522-1.287s.225-.885.23-.898zm-8.323 16.155a.9.9 0 01-.777-.449h1.553a.9.9 0 01-.776.449zm3.138-1.795a.449.449 0 01-.449.449h-5.382a.449.449 0 01-.449-.449v-.447h6.28zm0-1.346h-6.279v-.901h6.279zm3.619-11.213a.493.493 0 00-.022.049L47.1 69.723h-6.54l-3.256-9.636a.422.422 0 00-.018-.045c-.1-.21-.18-.424-.258-.64h13.95a7.482 7.482 0 01-.39.902zm.649-1.8H36.766a7.362 7.362 0 011-5.558 7.4 7.4 0 0113.473 5.559z" fill="#fff"/></g></g><g data-name="Grupo 500"><g data-name="Grupo 499"><path data-name="Trazado 1583" d="M41.738 51.41a6.26 6.26 0 00-1.308.781l.549.709a5.42 5.42 0 011.122-.67z" fill="#fff"/></g></g><g data-name="Grupo 502"><g data-name="Grupo 501"><path data-name="Trazado 1584" d="M39.53 53.046a6.282 6.282 0 00-1.536 4.116h.9a5.382 5.382 0 011.316-3.527z" fill="#fff"/></g></g><g data-name="greenhouse (1)"><g data-name="Grupo 543"><path data-name="Trazado 1612" d="M68.488 76.89h-4.055V46.829h4.054a.824.824 0 00.472-1.5l-8.311-5.818c0-.058-16.005-11.1-16.079-11.256a.824.824 0 00-.945 0l-7.24 5.074v-3.571h1.615a.824.824 0 00.824-.824v-4.878a.824.824 0 00-.824-.827H24.584a.824.824 0 00-.824.824v4.881a.824.824 0 00.824.824h1.615v10.7l-6.965 4.871a.824.824 0 00.472 1.5h4.054V76.89h-4.049a.824.824 0 100 1.648h48.777a.824.824 0 100-1.648zM25.411 28.11v-3.23h11.764v3.23H25.411zm9.327 1.648v4.722l-6.888 4.822v-9.544zm-6.209 15.425a.824.824 0 100 1.648h34.256V76.89H44.921c.008.034-1.69.02-1.648 0H25.411V46.007a.824.824 0 00-.824-.824h-2.266l21.775-15.244 21.776 15.244H28.529z" fill="#fff"/></g></g></g></g></svg>