<svg xmlns="http://www.w3.org/2000/svg" width="88.202" height="101.382"><g data-name="Grupo 1023"><g data-name="Polígono 1" fill="#fab102" stroke="#fab102"><path d="M1.5 73.143V28.239a3.51 3.51 0 011.756-3.035l39.1-22.472a3.512 3.512 0 013.489 0l39.101 22.472a3.509 3.509 0 011.756 3.035v44.904a3.51 3.51 0 01-1.756 3.035L45.845 98.649a3.512 3.512 0 01-3.488 0L3.256 76.178A3.509 3.509 0 011.5 73.143z"/><path d="M85.202 28.239c0-.714-.384-1.379-1.003-1.734L45.097 4.033a2.007 2.007 0 00-1.993 0l-39.1 22.472A2.005 2.005 0 003 28.239v44.904c0 .714.384 1.378 1.003 1.734l39.101 22.472a2.007 2.007 0 001.993 0L84.2 74.877a2.005 2.005 0 001.003-1.734V28.239m3 0v44.904a5 5 0 01-2.509 4.335l-39.1 22.472a5 5 0 01-4.983 0L2.508 77.478A5 5 0 010 73.143V28.239a5 5 0 012.508-4.335L41.61 1.432a5 5 0 014.982 0l39.101 22.472a5 5 0 012.509 4.335z" fill="#fff"/></g><g data-name="Grupo 567"><g fill="#fff"><path data-name="Trazado 1694" d="M62.777 69.073h7.838a.653.653 0 00.653-.653v-5.878a.653.653 0 00-.653-.653h-7.838a.653.653 0 00-.653.653v5.878a.653.653 0 00.653.653zm.653-5.878h6.532v4.572H63.43z"/><path data-name="Trazado 1695" d="M52.329 61.888h-7.813a.653.653 0 00-.653.653v5.878a.653.653 0 00.653.653h7.813a.653.653 0 00.653-.653v-5.878a.653.653 0 00-.653-.653zm-.653 5.878h-6.5v-4.572h6.5z"/><path data-name="Trazado 1696" d="M75.187 71.685h-1.306v-11.17a3.271 3.271 0 002.613-3.2v-1.306a.651.651 0 00-.22-.488l-5.659-5.03v-4.932a1.962 1.962 0 00-1.958-1.96h-4.3l-.277-3.32a.653.653 0 00-.651-.6h-3.265v-1.305a1.958 1.958 0 00-3.265-1.459 1.958 1.958 0 00-3.266 1.459v1.306h-1.96a.653.653 0 00-.651.6l-.277 3.32h-4.3a1.962 1.962 0 00-1.959 1.959v4.932l-5.659 5.03a.651.651 0 00-.22.488v1.306a3.271 3.271 0 002.613 3.2v11.17h-1.304a1.96 1.96 0 000 3.919h35.271a1.96 1.96 0 100-3.919zm0-14.37a1.96 1.96 0 11-3.919 0v-.653h3.919zm-29.8-5.878h1.186l-2.446 3.919h-3.146zm28.732 3.919h-3.142l-2.449-3.919h1.186zm-7.132-3.919l2.449 3.919h-3.47l-.49-3.919zm-2.827 0l.49 3.919h-3.832v-3.919zm-4.649 3.919h-3.919v-3.919h3.919zm-5.225 0h-3.829l.49-3.919h3.342zm-5.149 0h-3.47l2.449-3.919h1.511zm-4 1.306h3.92v.653a1.96 1.96 0 11-3.919 0zm5.225 0h3.919v.653a1.96 1.96 0 11-3.919 0zm5.225 0h3.919v.653a1.96 1.96 0 11-3.919 0zm5.225 0h3.925v.653a1.96 1.96 0 11-3.919 0zm5.225 0h3.92v.653a1.96 1.96 0 11-3.919 0zm-3.208-15.675l.544 6.532h-2.608l-.544-6.532zm-4.624-3.266a.654.654 0 01.653.653v1.306h-1.306v-1.306a.654.654 0 01.653-.653zm-3.266.653a.653.653 0 011.306 0v1.306h-1.306zm-2.665 2.613h1.358v1.306h1.306v-1.306h1.306v1.306h1.306v-1.306h1.359l.548 6.528H51.73zm-6.479 4.572a.654.654 0 01.653-.653h4.189l-.268 3.209a.653.653 0 00.651.707h13.063a.653.653 0 00.651-.707l-.268-3.212h4.191a.654.654 0 01.653.653v4.572H45.795zm-5.879 11.756v-.653h3.919v.653a1.96 1.96 0 11-3.919 0zm2.613 3.2a3.271 3.271 0 001.959-1.243 3.262 3.262 0 005.225 0 3.262 3.262 0 005.225 0 3.262 3.262 0 005.225 0 3.262 3.262 0 005.225 0 3.262 3.262 0 005.225 0 3.272 3.272 0 001.962 1.243v11.17H60.818v-9.144a.653.653 0 00-.653-.653h-5.226a.653.653 0 00-.653.653v9.144H42.529zm16.982 11.17h-3.919v-8.491h3.919zm15.676 2.613H39.916a.653.653 0 010-1.306h35.271a.653.653 0 010 1.306z"/></g><g data-name="Grupo 492"><g data-name="Grupo 491"><path data-name="Trazado 1579" d="M25.751 47.937a.814.814 0 00-.814.814v13.02a.814.814 0 001.628 0v-13.02a.814.814 0 00-.814-.814z" fill="#fff"/></g></g><g data-name="Grupo 494"><g data-name="Grupo 493"><path data-name="Trazado 1580" d="M22.481 61.621l-2.441-13.02a.814.814 0 00-1.611.231q0 .034.013.068l2.441 13.02a.813.813 0 001.612-.15.826.826 0 00-.014-.149z" fill="#fff"/></g></g><g data-name="Grupo 496"><g data-name="Grupo 495"><path data-name="Trazado 1581" d="M32.451 47.924a.814.814 0 00-.977.609 1.627 1.627 0 00-.013.068l-2.441 13.02a.814.814 0 101.6.3l2.441-13.02a.814.814 0 00-.61-.977z" fill="#fff"/></g></g><g data-name="Grupo 498"><g data-name="Grupo 497"><path data-name="Trazado 1582" d="M40.844 44.683a15.055 15.055 0 10-29.556 0c-.008 0 .409 1.628.409 1.628s.426 1.219.695 1.8l6.035 17.859v4.749a2.441 2.441 0 002.441 2.441h1.743a3.24 3.24 0 006.279 0h1.743a2.441 2.441 0 002.441-2.441v-4.732l6.408-17.342c.379-.751.946-2.335.946-2.335zM25.753 73.978a1.628 1.628 0 01-1.409-.814h2.817a1.628 1.628 0 01-1.408.814zm5.7-3.255a.814.814 0 01-.814.814h-9.771a.814.814 0 01-.814-.814v-.814h11.393zm0-2.441h-11.4v-1.63h11.393zm6.564-20.335a.894.894 0 00-.039.09l-6.281 16.991H19.825L13.92 47.552a.722.722 0 00-.033-.081c-.177-.382-.326-.77-.468-1.161h25.3a13.561 13.561 0 01-.708 1.637zm1.177-3.264H12.953a13.351 13.351 0 011.8-10.079 13.427 13.427 0 0124.433 10.082z" fill="#fff"/></g></g><g data-name="Grupo 500"><g data-name="Grupo 499"><path data-name="Trazado 1583" d="M21.962 31.817a11.355 11.355 0 00-2.373 1.417l1 1.287a9.83 9.83 0 012.034-1.215z" fill="#fff"/></g></g><g data-name="Grupo 502"><g data-name="Grupo 501"><path data-name="Trazado 1584" d="M17.957 34.781a11.393 11.393 0 00-2.786 7.464h1.628a9.76 9.76 0 012.387-6.4z" fill="#fff"/></g></g></g></g></svg>