<svg xmlns="http://www.w3.org/2000/svg" width="524.352" height="103.5"><path d="M132.34 46.311c-.651-.651-.977-1.536-.977-2.653V10.989c0-1.079.307-1.917.921-2.512.614-.595 1.461-.894 2.541-.894h13.738c4.207 0 7.483 1.052 9.828 3.155 2.346 2.104 3.519 5.054 3.519 8.851s-1.172 6.757-3.519 8.88c-2.345 2.121-5.622 3.182-9.828 3.182h-9.996v12.007c0 1.117-.327 2.002-.978 2.653-.652.651-1.536.977-2.653.977-1.079 0-1.944-.326-2.596-.977zm22.757-26.666c0-4.318-2.476-6.478-7.428-6.478h-9.102v12.956h9.102c4.952 0 7.428-2.159 7.428-6.478zm10.136 26.777c-.652-.576-.978-1.405-.978-2.485V10.598c0-1.079.325-1.898.978-2.458.65-.558 1.479-.837 2.484-.837 1.006 0 1.843.279 2.513.837.67.56 1.006 1.378 1.006 2.458v33.339c0 1.08-.335 1.909-1.006 2.485-.67.577-1.507.866-2.513.866-1.005 0-1.834-.289-2.484-.866zm30.156-24.627c1.843 1.881 2.764 4.738 2.764 8.573v13.625c0 1.005-.298 1.797-.893 2.374-.596.578-1.416.866-2.458.866-.968 0-1.759-.298-2.374-.894-.614-.595-.921-1.377-.921-2.346v-1.228a7.28 7.28 0 01-2.988 3.406c-1.359.819-2.932 1.229-4.719 1.229-1.825 0-3.481-.372-4.97-1.117-1.49-.744-2.662-1.768-3.519-3.071-.857-1.303-1.284-2.755-1.284-4.356 0-2.011.511-3.593 1.535-4.747s2.689-1.991 4.999-2.513c2.308-.521 5.49-.782 9.549-.782h1.396V29.53c0-1.824-.391-3.155-1.172-3.993-.782-.838-2.048-1.257-3.798-1.257-1.08 0-2.178.159-3.294.475-1.117.316-2.439.773-3.965 1.368-.968.484-1.675.726-2.122.726-.669 0-1.22-.242-1.647-.726-.428-.483-.642-1.116-.642-1.898 0-.632.158-1.181.475-1.647.315-.465.846-.902 1.591-1.313 1.302-.707 2.857-1.266 4.663-1.675a24.084 24.084 0 015.333-.614c3.798-.001 6.618.94 8.461 2.819zm-5.64 18.708c1.172-1.248 1.759-2.857 1.759-4.831V34.5h-1.005c-2.495 0-4.431.112-5.808.335-1.377.224-2.365.614-2.959 1.173-.596.558-.894 1.322-.894 2.289 0 1.192.419 2.169 1.256 2.932.837.764 1.871 1.145 3.099 1.145 1.862 0 3.379-.623 4.552-1.871zm29.122 4.104c0 .894-.363 1.573-1.089 2.039s-1.759.661-3.1.586l-1.507-.112c-6.255-.447-9.382-3.797-9.382-10.052V24.895H201c-1.005 0-1.779-.223-2.317-.67-.54-.447-.81-1.098-.81-1.955 0-.856.271-1.508.81-1.954.539-.447 1.313-.671 2.317-.671h2.792v-5.138c0-1.005.316-1.805.95-2.401.632-.595 1.489-.894 2.569-.894 1.042 0 1.879.299 2.513.894.632.596.949 1.396.949 2.401v5.138h4.747c1.005 0 1.777.224 2.318.671.539.446.81 1.098.81 1.954 0 .857-.271 1.508-.81 1.955-.541.447-1.313.67-2.318.67h-4.747v12.677c0 2.756 1.266 4.226 3.798 4.412l1.508.111c1.861.111 2.792.949 2.792 2.512z"/><path d="M239.449 21.795c1.843 1.881 2.764 4.738 2.764 8.573v13.625c0 1.005-.298 1.797-.894 2.374-.596.578-1.415.866-2.457.866-.969 0-1.759-.298-2.374-.894-.614-.595-.921-1.377-.921-2.346v-1.228a7.285 7.285 0 01-2.988 3.406c-1.359.819-2.932 1.229-4.719 1.229-1.825 0-3.481-.372-4.97-1.117-1.49-.744-2.662-1.768-3.519-3.071-.857-1.303-1.284-2.755-1.284-4.356 0-2.011.511-3.593 1.536-4.747 1.024-1.154 2.689-1.991 4.999-2.513 2.308-.521 5.491-.782 9.549-.782h1.396V29.53c0-1.824-.391-3.155-1.173-3.993-.781-.838-2.047-1.257-3.797-1.257-1.08 0-2.178.159-3.294.475-1.117.316-2.439.773-3.965 1.368-.968.484-1.676.726-2.122.726-.67 0-1.22-.242-1.647-.726-.429-.483-.643-1.116-.643-1.898 0-.632.158-1.181.475-1.647.316-.465.847-.902 1.592-1.313 1.302-.707 2.857-1.266 4.663-1.675a24.084 24.084 0 015.333-.614c3.797-.001 6.617.94 8.46 2.819zm-5.64 18.708c1.173-1.248 1.759-2.857 1.759-4.831V34.5h-1.005c-2.495 0-4.432.112-5.808.335-1.377.224-2.365.614-2.959 1.173-.596.558-.894 1.322-.894 2.289 0 1.192.419 2.169 1.256 2.932.837.764 1.871 1.145 3.1 1.145 1.861 0 3.378-.623 4.551-1.871zm22.197-26.163c-.782.931-1.172 2.271-1.172 4.021v1.284h4.747c2.084 0 3.127.875 3.127 2.625s-1.043 2.625-3.127 2.625h-4.747v19.043c0 1.08-.327 1.898-.978 2.457-.652.559-1.48.838-2.485.838s-1.843-.279-2.513-.838c-.67-.559-1.005-1.377-1.005-2.457V24.895h-2.792c-2.085 0-3.127-.874-3.127-2.625 0-1.75 1.042-2.625 3.127-2.625h2.792v-.391c0-3.499.921-6.245 2.765-8.237 1.842-1.991 4.44-3.118 7.79-3.379l1.452-.112c1.488-.111 2.541.047 3.155.475.614.429.921 1.089.921 1.982 0 1.601-.913 2.495-2.736 2.681l-1.453.112c-1.712.112-2.959.634-3.741 1.564zm11.421 31.329c-2.104-1.154-3.733-2.811-4.887-4.971-1.154-2.158-1.73-4.671-1.73-7.539 0-2.866.576-5.37 1.73-7.51 1.154-2.141 2.783-3.788 4.887-4.942 2.103-1.154 4.551-1.731 7.343-1.731 2.793 0 5.24.578 7.344 1.731 2.104 1.154 3.723 2.802 4.859 4.942s1.703 4.644 1.703 7.51c0 2.868-.567 5.381-1.703 7.539-1.136 2.16-2.755 3.817-4.859 4.971s-4.551 1.731-7.344 1.731c-2.791 0-5.24-.577-7.343-1.731zm12.481-5.919c1.192-1.489 1.787-3.686 1.787-6.59 0-2.866-.595-5.054-1.787-6.562-1.191-1.508-2.903-2.262-5.138-2.262-2.233 0-3.956.754-5.165 2.262-1.21 1.508-1.815 3.695-1.815 6.562 0 2.904.595 5.102 1.787 6.59 1.191 1.49 2.904 2.234 5.138 2.234 2.27-.001 4.002-.745 5.193-2.234zm28.704-20.049c.559.484.838 1.21.838 2.178 0 1.005-.242 1.75-.726 2.233-.484.485-1.36.801-2.625.95l-1.676.167c-2.197.224-3.806.969-4.83 2.234-1.024 1.267-1.536 2.848-1.536 4.747v11.727c0 1.08-.335 1.909-1.006 2.485-.669.577-1.508.866-2.513.866s-1.834-.289-2.485-.866c-.652-.576-.977-1.405-.977-2.485V22.326c0-1.042.325-1.843.977-2.401.651-.559 1.461-.837 2.43-.837.967 0 1.749.271 2.345.81.595.54.894 1.313.894 2.318v2.233c.707-1.638 1.759-2.904 3.155-3.798 1.396-.893 2.95-1.396 4.663-1.507l.782-.056c.969-.075 1.732.13 2.29.613z"/><path d="M348.402 21.627c1.582 1.769 2.373 4.627 2.373 8.572v13.738c0 1.08-.326 1.909-.978 2.485-.652.577-1.499.866-2.541.866-1.005 0-1.834-.289-2.485-.866-.651-.576-.978-1.405-.978-2.485V30.2c0-2.047-.362-3.508-1.088-4.383-.727-.875-1.834-1.313-3.323-1.313-1.824 0-3.277.624-4.355 1.871-1.08 1.248-1.62 2.952-1.62 5.11v12.453c0 1.08-.326 1.909-.978 2.485-.651.577-1.479.866-2.484.866-1.006 0-1.843-.289-2.514-.866-.67-.576-1.006-1.405-1.006-2.485V30.2c0-2.047-.362-3.508-1.088-4.383s-1.834-1.313-3.323-1.313c-1.824 0-3.267.624-4.327 1.871-1.062 1.248-1.592 2.952-1.592 5.11v12.453c0 1.08-.335 1.909-1.006 2.485-.669.577-1.508.866-2.513.866s-1.834-.289-2.485-.866c-.652-.576-.978-1.405-.978-2.485V22.326c0-1.042.336-1.843 1.005-2.401.671-.559 1.508-.837 2.514-.837.967 0 1.758.271 2.373.81.614.54.922 1.313.922 2.318v1.34c.855-1.488 2-2.624 3.434-3.406s3.081-1.173 4.943-1.173c4.095 0 6.831 1.713 8.209 5.137.818-1.563 2.029-2.81 3.63-3.741 1.6-.93 3.406-1.396 5.417-1.396 2.978-.002 5.258.883 6.842 2.65zm26.413.168c1.843 1.881 2.764 4.738 2.764 8.573v13.625c0 1.005-.298 1.797-.893 2.374-.597.578-1.416.866-2.458.866-.969 0-1.759-.298-2.374-.894-.613-.595-.921-1.377-.921-2.346v-1.228a7.285 7.285 0 01-2.988 3.406c-1.358.819-2.932 1.229-4.719 1.229-1.824 0-3.48-.372-4.97-1.117-1.489-.744-2.662-1.768-3.518-3.071-.857-1.303-1.284-2.755-1.284-4.356 0-2.011.51-3.593 1.534-4.747s2.689-1.991 4.999-2.513c2.309-.521 5.491-.782 9.55-.782h1.396V29.53c0-1.824-.391-3.155-1.172-3.993-.782-.838-2.048-1.257-3.798-1.257-1.08 0-2.179.159-3.295.475-1.117.316-2.439.773-3.966 1.368-.968.484-1.675.726-2.121.726-.67 0-1.221-.242-1.647-.726-.429-.483-.643-1.116-.643-1.898 0-.632.157-1.181.475-1.647.316-.465.847-.902 1.592-1.313 1.302-.707 2.857-1.266 4.663-1.675a24.084 24.084 0 015.333-.614c3.797-.001 6.619.94 8.461 2.819zm-5.64 18.708c1.172-1.248 1.759-2.857 1.759-4.831V34.5h-1.005c-2.495 0-4.431.112-5.808.335-1.378.224-2.365.614-2.96 1.173-.596.558-.894 1.322-.894 2.289 0 1.192.419 2.169 1.257 2.932.837.764 1.87 1.145 3.099 1.145 1.862 0 3.379-.623 4.552-1.871zm62.154-31.999c.763.802 1.145 1.834 1.145 3.1v31.72c0 1.229-.354 2.197-1.061 2.904-.708.708-1.639 1.061-2.793 1.061-1.116 0-2.029-.354-2.735-1.061-.708-.707-1.062-1.675-1.062-2.904V23.61l-7.931 14.911c-.521.968-1.088 1.675-1.702 2.122-.614.447-1.351.67-2.206.67-.819 0-1.545-.223-2.178-.67-.634-.446-1.21-1.153-1.731-2.122l-7.93-14.631v19.434c0 1.192-.354 2.15-1.062 2.875-.707.727-1.638 1.089-2.792 1.089-1.117 0-2.03-.354-2.736-1.061-.708-.707-1.062-1.675-1.062-2.904v-31.72c0-1.265.381-2.298 1.145-3.1.764-.8 1.76-1.2 2.988-1.2 1.787 0 3.146.949 4.077 2.848l11.336 21.5 11.28-21.5c1.005-1.898 2.346-2.848 4.021-2.848 1.23.001 2.225.401 2.989 1.201zm38.841 35.322c0 1.042-.419 1.898-1.258 2.568-.837.67-1.814 1.005-2.932 1.005a4.558 4.558 0 01-2.066-.503c-.67-.334-1.229-.856-1.675-1.563l-7.371-10.946c-.634-.967-1.304-1.666-2.011-2.094-.708-.428-1.602-.643-2.681-.643h-4.523v11.281c0 1.34-.383 2.401-1.145 3.183-.764.781-1.797 1.172-3.101 1.172-1.339 0-2.4-.391-3.183-1.172-.781-.782-1.173-1.843-1.173-3.183V11.66c0-1.303.354-2.308 1.062-3.016.707-.707 1.712-1.061 3.016-1.061h14.017c4.616 0 8.106 1.015 10.472 3.043 2.364 2.03 3.546 4.962 3.546 8.796 0 3.016-.837 5.528-2.514 7.539-1.675 2.01-4.04 3.332-7.092 3.964a7.38 7.38 0 012.988 1.312c.874.652 1.722 1.592 2.54 2.821l4.244 6.366c.56.82.84 1.62.84 2.402zM459.279 23.75c1.117-.874 1.676-2.243 1.676-4.104 0-1.898-.559-3.276-1.676-4.132-1.116-.856-2.923-1.285-5.417-1.285h-8.32v10.834h8.32c2.494 0 4.301-.438 5.417-1.313zm42.945-15.916a3.961 3.961 0 012.123-.586c1.116 0 2.121.373 3.016 1.117.893.746 1.34 1.657 1.34 2.737 0 .559-.131 1.116-.392 1.676l-15.078 31.831a4.419 4.419 0 01-1.843 1.983c-.818.465-1.713.698-2.681.698s-1.862-.233-2.68-.698a4.414 4.414 0 01-1.843-1.983l-15.079-31.831a3.577 3.577 0 01-.391-1.62c0-1.117.466-2.047 1.396-2.792.93-.744 1.973-1.117 3.127-1.117a4.1 4.1 0 012.15.586c.65.391 1.145.978 1.479 1.759l11.951 26.135L500.77 9.594c.336-.782.821-1.369 1.454-1.76zM156.899 52.246c.67.596 1.005 1.378 1.005 2.346v33.395c0 1.005-.316 1.807-.949 2.401-.634.596-1.471.894-2.513.894-1.043 0-1.881-.298-2.513-.894-.635-.595-.95-1.396-.95-2.401V86.59c-.819 1.527-2.001 2.719-3.546 3.574s-3.305 1.285-5.276 1.285c-2.347 0-4.439-.596-6.283-1.787-1.843-1.191-3.276-2.877-4.3-5.055-1.025-2.178-1.536-4.681-1.536-7.511 0-2.829.511-5.306 1.536-7.428 1.023-2.121 2.447-3.759 4.271-4.913s3.928-1.732 6.312-1.732c1.972 0 3.721.41 5.248 1.229 1.526.82 2.699 1.975 3.519 3.463V54.479c0-.931.308-1.685.921-2.261.615-.578 1.442-.866 2.485-.866 1.042.001 1.899.299 2.569.894zm-7.734 31.496c1.209-1.525 1.814-3.703 1.814-6.534 0-2.828-.605-4.998-1.814-6.505-1.21-1.508-2.913-2.262-5.11-2.262-2.233 0-3.965.744-5.193 2.233s-1.843 3.63-1.843 6.422c0 2.83.614 5.026 1.843 6.59s2.94 2.346 5.138 2.346c2.233 0 3.955-.762 5.165-2.29zm35.74.503c.391.483.587 1.136.587 1.954 0 1.154-.69 2.122-2.067 2.904-1.266.707-2.699 1.275-4.3 1.703s-3.127.643-4.579.643c-4.394 0-7.874-1.266-10.443-3.799-2.568-2.53-3.853-5.992-3.853-10.386 0-2.792.558-5.268 1.675-7.428 1.117-2.159 2.689-3.834 4.719-5.026 2.029-1.191 4.328-1.787 6.897-1.787 2.457 0 4.597.541 6.422 1.62 1.823 1.08 3.239 2.606 4.244 4.579 1.005 1.974 1.508 4.301 1.508 6.98 0 1.602-.708 2.401-2.122 2.401h-16.475c.224 2.569.949 4.459 2.179 5.669 1.229 1.209 3.016 1.814 5.361 1.814 1.19 0 2.242-.148 3.155-.446a31.344 31.344 0 003.099-1.229c1.117-.595 1.936-.893 2.457-.893.633.002 1.145.244 1.536.727zm-15.748-14.519c-1.137 1.192-1.815 2.903-2.039 5.138h12.622c-.075-2.271-.635-3.993-1.676-5.166-1.043-1.172-2.495-1.759-4.356-1.759-1.898-.001-3.416.595-4.551 1.787zm19.88 20.745c-.652-.576-.978-1.404-.978-2.484v-33.34c0-1.078.325-1.897.978-2.457.65-.558 1.48-.837 2.485-.837s1.843.279 2.513.837c.671.56 1.006 1.379 1.006 2.457v33.34c0 1.08-.335 1.908-1.006 2.484-.67.577-1.508.866-2.513.866s-1.834-.289-2.485-.866zm21.695-1.424c-1.192-.707-1.787-1.711-1.787-3.015 0-.744.204-1.35.614-1.815.409-.465.912-.697 1.508-.697.633 0 1.508.298 2.625.893 1.19.559 2.28.987 3.267 1.285.986.299 2.242.446 3.77.446 1.563 0 2.783-.259 3.658-.782.874-.52 1.313-1.246 1.313-2.178 0-.633-.178-1.135-.531-1.508-.354-.371-.987-.716-1.898-1.033-.912-.315-2.3-.678-4.16-1.088-3.314-.671-5.688-1.62-7.12-2.849-1.434-1.229-2.15-2.923-2.15-5.083 0-1.637.483-3.117 1.452-4.439.968-1.32 2.298-2.345 3.993-3.07 1.693-.727 3.62-1.09 5.779-1.09 1.564 0 3.072.196 4.523.587 1.452.392 2.755.959 3.909 1.703 1.19.745 1.787 1.731 1.787 2.96 0 .744-.204 1.368-.615 1.871-.409.502-.911.754-1.507.754-.41 0-.81-.084-1.201-.252a15.659 15.659 0 01-1.479-.754c-1.08-.558-2.01-.977-2.791-1.256-.782-.279-1.751-.419-2.905-.419-1.377 0-2.467.278-3.267.838-.801.558-1.2 1.321-1.2 2.289 0 .931.409 1.639 1.229 2.122.818.484 2.4.969 4.746 1.452 2.494.522 4.449 1.116 5.864 1.787 1.415.67 2.429 1.508 3.043 2.513.614 1.006.922 2.289.922 3.854 0 2.531-1.053 4.561-3.155 6.087-2.104 1.526-4.905 2.29-8.405 2.29-4.06-.001-7.336-.802-9.831-2.403zm46.827-4.802c.39.483.586 1.136.586 1.954 0 1.154-.689 2.122-2.066 2.904-1.266.707-2.699 1.275-4.3 1.703-1.602.428-3.127.643-4.579.643-4.395 0-7.875-1.266-10.443-3.799-2.569-2.53-3.854-5.992-3.854-10.386 0-2.792.559-5.268 1.676-7.428 1.116-2.159 2.688-3.834 4.719-5.026 2.028-1.191 4.328-1.787 6.896-1.787 2.458 0 4.598.541 6.422 1.62 1.824 1.08 3.24 2.606 4.245 4.579 1.005 1.974 1.508 4.301 1.508 6.98 0 1.602-.708 2.401-2.123 2.401h-16.474c.224 2.569.949 4.459 2.178 5.669 1.229 1.209 3.016 1.814 5.36 1.814 1.192 0 2.243-.148 3.156-.446a31.45 31.45 0 003.1-1.229c1.116-.595 1.935-.893 2.457-.893.632.002 1.144.244 1.536.727zM241.81 69.726c-1.136 1.192-1.814 2.903-2.038 5.138h12.621c-.075-2.271-.634-3.993-1.676-5.166-1.043-1.172-2.494-1.759-4.355-1.759-1.9-.001-3.417.595-4.552 1.787zm23.844 19.992c-2.066-1.153-3.658-2.792-4.774-4.914-1.117-2.122-1.675-4.599-1.675-7.428s.586-5.333 1.758-7.511c1.174-2.178 2.821-3.862 4.943-5.055 2.121-1.191 4.56-1.787 7.315-1.787 1.451 0 2.913.205 4.383.615 1.472.409 2.766.969 3.882 1.675 1.191.782 1.787 1.769 1.787 2.96 0 .819-.195 1.479-.586 1.982-.392.503-.903.754-1.536.754-.41 0-.838-.092-1.284-.279a11.249 11.249 0 01-1.341-.67c-.819-.483-1.601-.865-2.346-1.145s-1.601-.42-2.568-.42c-2.309 0-4.086.754-5.333 2.263-1.248 1.508-1.871 3.677-1.871 6.506 0 2.792.623 4.942 1.871 6.45 1.247 1.508 3.024 2.262 5.333 2.262.931 0 1.759-.141 2.484-.419.727-.28 1.537-.661 2.43-1.146.559-.335 1.042-.586 1.452-.754s.818-.251 1.229-.251c.595 0 1.097.261 1.508.782.408.521.613 1.172.613 1.954 0 .634-.14 1.183-.419 1.647-.278.465-.735.885-1.368 1.256-1.153.746-2.494 1.332-4.021 1.76a17.302 17.302 0 01-4.691.643c-2.717.001-5.108-.576-7.175-1.73z"/><path d="M301.757 88.656c0 .894-.363 1.573-1.089 2.039-.726.465-1.759.66-3.099.586l-1.508-.111c-6.255-.447-9.383-3.798-9.383-10.053V68.943h-2.792c-1.005 0-1.778-.223-2.317-.67s-.81-1.098-.81-1.955c0-.855.271-1.508.81-1.953.539-.447 1.313-.672 2.317-.672h2.792v-5.137c0-1.006.316-1.806.95-2.402.632-.594 1.488-.893 2.569-.893 1.041 0 1.879.299 2.512.893.633.597.95 1.396.95 2.402v5.137h4.746c1.006 0 1.777.225 2.318.672.539.445.81 1.098.81 1.953 0 .857-.271 1.508-.81 1.955-.541.447-1.313.67-2.318.67h-4.746V81.62c0 2.756 1.265 4.226 3.797 4.412l1.508.111c1.862.112 2.793.951 2.793 2.513z"/><path d="M307.146 89.718c-2.104-1.153-3.733-2.811-4.887-4.971-1.155-2.158-1.731-4.671-1.731-7.539 0-2.866.576-5.37 1.731-7.511 1.153-2.141 2.782-3.787 4.887-4.941 2.103-1.154 4.551-1.732 7.344-1.732 2.792 0 5.239.578 7.343 1.732s3.723 2.801 4.858 4.941 1.703 4.645 1.703 7.511c0 2.868-.567 5.381-1.703 7.539-1.136 2.16-2.755 3.817-4.858 4.971-2.104 1.154-4.551 1.731-7.343 1.731-2.793 0-5.241-.577-7.344-1.731zm12.481-5.919c1.192-1.489 1.787-3.687 1.787-6.591 0-2.866-.595-5.054-1.787-6.562-1.191-1.508-2.903-2.262-5.137-2.262-2.234 0-3.957.754-5.167 2.262s-1.813 3.695-1.813 6.562c0 2.904.595 5.102 1.786 6.591 1.19 1.489 2.904 2.233 5.139 2.233 2.269 0 4.001-.744 5.192-2.233zm28.704-20.049c.559.484.838 1.21.838 2.178 0 1.006-.243 1.75-.727 2.233-.484.485-1.359.802-2.625.95l-1.675.167c-2.198.224-3.808.969-4.831 2.233-1.024 1.268-1.535 2.849-1.535 4.748v11.727c0 1.08-.335 1.908-1.006 2.484-.67.577-1.508.866-2.513.866s-1.834-.289-2.484-.866c-.653-.576-.978-1.404-.978-2.484V66.375c0-1.042.324-1.844.978-2.402.65-.559 1.46-.837 2.429-.837.968 0 1.75.271 2.346.81.595.54.894 1.313.894 2.318v2.232c.707-1.637 1.759-2.904 3.154-3.797 1.396-.894 2.951-1.396 4.663-1.508l.782-.056c.968-.073 1.73.132 2.29.615zm35.434 20.495c.39.483.586 1.136.586 1.954 0 1.154-.689 2.122-2.066 2.904-1.266.707-2.699 1.275-4.3 1.703-1.602.428-3.127.643-4.579.643-4.395 0-7.874-1.266-10.443-3.799-2.569-2.53-3.854-5.992-3.854-10.386 0-2.792.559-5.268 1.676-7.428 1.116-2.159 2.688-3.834 4.719-5.026 2.028-1.191 4.328-1.787 6.897-1.787 2.457 0 4.597.541 6.422 1.62 1.823 1.08 3.239 2.606 4.244 4.579 1.005 1.974 1.508 4.301 1.508 6.98 0 1.602-.708 2.401-2.123 2.401h-16.474c.224 2.569.949 4.459 2.178 5.669 1.229 1.209 3.017 1.814 5.361 1.814 1.191 0 2.242-.148 3.155-.446a31.352 31.352 0 003.1-1.229c1.117-.595 1.936-.893 2.457-.893.632.002 1.144.244 1.536.727zm-15.749-14.519c-1.136 1.192-1.814 2.903-2.038 5.138h12.621c-.075-2.271-.634-3.993-1.676-5.166-1.043-1.172-2.494-1.759-4.355-1.759-1.899-.001-3.417.595-4.552 1.787zm42.079-3.91c1.601 1.861 2.401 4.673 2.401 8.432v13.738c0 1.043-.307 1.861-.922 2.457-.614.596-1.462.894-2.541.894s-1.937-.298-2.568-.894c-.634-.596-.949-1.414-.949-2.457V74.639c0-2.121-.401-3.666-1.201-4.635-.8-.967-2.057-1.451-3.769-1.451-2.011 0-3.622.633-4.831 1.898-1.211 1.267-1.814 2.961-1.814 5.082v12.453c0 1.043-.317 1.861-.95 2.457-.634.596-1.489.894-2.569.894s-1.926-.298-2.541-.894c-.614-.596-.921-1.414-.921-2.457V66.375c0-.968.316-1.75.949-2.346.634-.596 1.489-.894 2.569-.894.968 0 1.759.288 2.373.866.614.576.922 1.331.922 2.262v1.507a9.46 9.46 0 013.741-3.519c1.563-.818 3.332-1.229 5.306-1.229 3.275.001 5.714.933 7.315 2.794zm29.289 18.429c.392.483.587 1.136.587 1.954 0 1.154-.69 2.122-2.066 2.904-1.266.707-2.699 1.275-4.3 1.703s-3.127.643-4.58.643c-4.393 0-7.874-1.266-10.442-3.799-2.569-2.53-3.854-5.992-3.854-10.386 0-2.792.559-5.268 1.676-7.428 1.116-2.159 2.689-3.834 4.719-5.026 2.029-1.191 4.328-1.787 6.896-1.787 2.458 0 4.598.541 6.422 1.62 1.824 1.08 3.239 2.606 4.244 4.579 1.006 1.974 1.509 4.301 1.509 6.98 0 1.602-.708 2.401-2.122 2.401h-16.475c.224 2.569.949 4.459 2.179 5.669 1.228 1.209 3.015 1.814 5.36 1.814 1.191 0 2.242-.148 3.155-.446a31.352 31.352 0 003.1-1.229c1.117-.595 1.935-.893 2.458-.893.631.002 1.144.244 1.534.727zm-15.748-14.519c-1.136 1.192-1.814 2.903-2.038 5.138h12.621c-.075-2.271-.633-3.993-1.676-5.166-1.042-1.172-2.494-1.759-4.355-1.759-1.9-.001-3.417.595-4.552 1.787zm36.439-5.976c.558.484.837 1.21.837 2.178 0 1.006-.242 1.75-.727 2.233-.484.485-1.358.802-2.624.95l-1.676.167c-2.197.224-3.807.969-4.83 2.233-1.024 1.268-1.535 2.849-1.535 4.748v11.727c0 1.08-.336 1.908-1.006 2.484-.67.577-1.508.866-2.513.866s-1.834-.289-2.485-.866c-.652-.576-.978-1.404-.978-2.484V66.375c0-1.042.325-1.844.978-2.402.651-.559 1.461-.837 2.429-.837s1.75.271 2.346.81c.596.54.894 1.313.894 2.318v2.232c.708-1.637 1.76-2.904 3.155-3.797 1.396-.894 2.95-1.396 4.663-1.508l.782-.056c.968-.073 1.731.132 2.29.615zm25.576.279c.633.596.95 1.396.95 2.401v22.059c0 4.28-1.192 7.519-3.575 9.717-2.383 2.196-5.9 3.294-10.555 3.294-4.059 0-7.446-.762-10.163-2.289-1.379-.819-2.067-1.807-2.067-2.96 0-.819.196-1.471.587-1.954.391-.484.902-.727 1.536-.727.335 0 .744.084 1.229.252.482.168.985.362 1.508.586 1.34.559 2.541.986 3.602 1.285 1.062.297 2.28.445 3.658.445 4.877 0 7.316-2.382 7.316-7.147v-3.573c-.82 1.527-2.011 2.709-3.575 3.545-1.563.838-3.35 1.257-5.36 1.257-2.384 0-4.496-.567-6.339-1.702-1.843-1.137-3.286-2.728-4.327-4.775-1.043-2.047-1.564-4.412-1.564-7.092 0-2.681.512-5.055 1.535-7.121 1.024-2.065 2.467-3.666 4.329-4.802 1.861-1.136 3.982-1.704 6.366-1.704 2.011 0 3.797.419 5.36 1.257 1.564.838 2.755 2.021 3.575 3.546v-1.451c0-.968.315-1.75.948-2.346s1.471-.894 2.514-.894c1.041 0 1.88.298 2.512.893zm-7.846 18.597c1.247-1.452 1.872-3.444 1.872-5.976 0-2.569-.625-4.58-1.872-6.031-1.247-1.452-2.987-2.178-5.221-2.178-2.197 0-3.929.726-5.194 2.178-1.266 1.451-1.898 3.462-1.898 6.031 0 2.531.633 4.523 1.898 5.976 1.266 1.451 2.997 2.178 5.194 2.178 2.233 0 3.974-.727 5.221-2.178zm13.626 7.845c-.651-.576-.977-1.404-.977-2.484V66.431c0-1.079.325-1.899.977-2.458s1.48-.837 2.485-.837 1.844.278 2.513.837c.671.559 1.006 1.379 1.006 2.458v21.556c0 1.08-.335 1.908-1.006 2.484-.669.577-1.508.866-2.513.866s-1.834-.289-2.485-.866zm2.653-30.072c-.521 0-.959-.177-1.313-.53s-.53-.773-.53-1.257c0-.409.147-.818.446-1.229l5.417-7.204c.856-1.117 1.843-1.675 2.96-1.675.818 0 1.517.289 2.094.866s.866 1.256.866 2.038c0 1.043-.503 1.937-1.509 2.681l-7.203 5.863c-.41.299-.819.447-1.228.447zm27.503 5.445c1.844 1.881 2.765 4.738 2.765 8.572v13.626c0 1.005-.299 1.797-.894 2.374-.596.577-1.415.865-2.457.865-.969 0-1.759-.298-2.374-.894-.613-.595-.921-1.377-.921-2.346v-1.228a7.283 7.283 0 01-2.988 3.405c-1.358.819-2.932 1.229-4.719 1.229-1.824 0-3.48-.373-4.97-1.117s-2.662-1.768-3.519-3.071-1.284-2.755-1.284-4.356c0-2.01.511-3.592 1.536-4.746 1.023-1.154 2.688-1.992 4.998-2.514 2.309-.521 5.49-.781 9.549-.781h1.396v-1.285c0-1.823-.391-3.154-1.173-3.992-.781-.838-2.047-1.257-3.798-1.257-1.079 0-2.178.159-3.295.476-1.116.315-2.438.772-3.964 1.367-.969.484-1.676.727-2.123.727-.669 0-1.219-.242-1.646-.727-.429-.482-.644-1.116-.644-1.898 0-.633.158-1.182.476-1.647.316-.465.847-.902 1.592-1.313 1.303-.706 2.856-1.266 4.662-1.675a24.035 24.035 0 015.334-.615c3.798 0 6.618.942 8.461 2.821zm-5.641 18.709c1.174-1.248 1.76-2.857 1.76-4.831v-1.173h-1.005c-2.495 0-4.432.111-5.808.335-1.378.224-2.365.614-2.96 1.173-.596.559-.894 1.322-.894 2.289 0 1.192.419 2.17 1.256 2.932.838.764 1.871 1.146 3.101 1.146 1.861-.001 3.378-.624 4.55-1.871zM102.809 70.221V51.75a2.578 2.578 0 10-5.156 0v18.471c-3.244 1.082-5.588 4.145-5.588 7.744 0 4.504 3.664 8.166 8.166 8.166s8.164-3.662 8.164-8.166c0-3.6-2.344-6.662-5.586-7.744zm-2.579 10.754c-1.66 0-3.01-1.35-3.01-3.01a3.013 3.013 0 013.01-3.008 3.012 3.012 0 013.008 3.008c0 1.66-1.349 3.01-3.008 3.01z"/><path d="M111.402 63.244V18.23c0-6.162-5.012-11.174-11.172-11.174-6.162 0-11.174 5.012-11.174 11.174v45.016a18.426 18.426 0 00-7.305 14.51c-.113 10.162 8.059 18.545 18.215 18.688l.266.002c4.889 0 9.486-1.885 12.973-5.322a18.349 18.349 0 005.504-13.158 18.405 18.405 0 00-7.307-14.722zm-1.818 24.207a13.226 13.226 0 01-9.354 3.836h-.191c-7.322-.104-13.213-6.146-13.131-13.473a13.296 13.296 0 016.123-11.061 2.58 2.58 0 001.182-2.168V18.23a6.025 6.025 0 016.018-6.018 6.024 6.024 0 016.016 6.018v1.719h-2.578a2.578 2.578 0 100 5.156h2.578v3.439h-2.578a2.578 2.578 0 100 5.156h2.578v3.438h-2.578a2.578 2.578 0 000 5.158h2.578v22.289c0 .877.445 1.693 1.184 2.168a13.28 13.28 0 016.121 11.211 13.23 13.23 0 01-3.968 9.487z"/><path d="M80.017 83.119a42.67 42.67 0 01-9.171 6.301c2.951-3.578 5.458-7.965 7.412-12.941.39-.053.77-.107 1.146-.162a20.408 20.408 0 011.363-5.912c-.161.025-.318.051-.482.074 1.36-4.932 2.165-10.299 2.377-15.91h3.978v-5.637h-3.978c-.219-5.834-1.101-11.391-2.554-16.482 2.656.518 4.881 1.016 6.531 1.408v-5.799a171.516 171.516 0 00-8.668-1.754c-1.906-4.684-4.314-8.818-7.126-12.227a42.57 42.57 0 0115.794 13.828v-9.678c0-1.412.229-2.771.643-4.049C78.005 5.402 65.5 0 51.75 0 23.215 0 0 23.215 0 51.75s23.215 51.75 51.75 51.75c12.483 0 23.949-4.443 32.898-11.83a20.448 20.448 0 01-4.631-8.551zm-5.796-11.812c-2.688.336-5.567.643-8.555.883.759-5.615 1.178-11.639 1.279-17.621h10.084c-.237 6.005-1.216 11.675-2.808 16.738zm2.808-22.375H66.945c-.107-6.357-.573-12.764-1.423-18.674 2.981.311 5.813.695 8.438 1.109 1.748 5.272 2.819 11.231 3.069 17.565zm-5.523-23.639c-2.22-.307-4.548-.58-6.966-.803-.931-4.631-2.132-8.77-3.62-12.119 4.174 2.715 7.822 7.193 10.586 12.922zM51.75 9.471c1.885 0 4.801 5.051 6.924 14.602a120.016 120.016 0 00-6.091-.166c-2.607 0-5.211.094-7.773.252 2.122-9.606 5.045-14.688 6.94-14.688zm.833 20.07c2.413 0 4.817.086 7.175.232.844 5.369 1.413 11.797 1.536 19.158H42.206c.12-7.307.683-13.693 1.52-19.043 2.92-.21 5.892-.347 8.857-.347zM42.58 12.371c-1.501 3.381-2.718 7.574-3.649 12.264-2.432.246-4.788.533-7.021.848 2.774-5.817 6.447-10.37 10.67-13.112zm-6.025 36.561H26.466c.251-6.252 1.29-12.146 2.999-17.371 2.639-.418 5.497-.814 8.486-1.145-.831 5.865-1.289 12.215-1.396 18.516zm1.234 22.922a311.76 311.76 0 01-8.614-.908c-1.529-4.975-2.476-10.512-2.708-16.377h10.088c.097 5.863.504 11.767 1.234 17.285zm-5.135-57.776c-2.851 3.455-5.286 7.66-7.206 12.424-3.584.629-6.611 1.26-8.829 1.756 4.025-5.998 9.555-10.883 16.035-14.18zM13.082 34.719c.084.01.163.045.247.045.238 0 .479-.031.723-.096.084-.021 3.708-.963 9.284-2.033-1.428 5.043-2.282 10.535-2.497 16.297H9.611c.335-5.028 1.524-9.813 3.471-14.213zm.726 34.056c-.245-.039-.479.004-.717.021-1.95-4.402-3.145-9.195-3.479-14.229h11.227c.206 5.496.987 10.758 2.299 15.607-5.519-.752-9.237-1.381-9.33-1.399zm2.607 6.129c2.158.332 5.149.768 8.69 1.227 1.967 5.121 4.528 9.627 7.549 13.289a42.542 42.542 0 01-16.239-14.516zm14.983 1.979c2.344.26 4.792.502 7.294.713.959 5.201 2.25 9.85 3.888 13.531-4.492-2.916-8.35-7.895-11.182-14.244zM51.75 94.029c-1.977 0-5.082-5.541-7.223-16.004 3.232.193 6.451.316 9.518.316 1.625 0 3.255-.041 4.88-.102-2.136 10.32-5.211 15.79-7.175 15.79zm2.295-21.326c-3.347 0-6.92-.148-10.501-.391-.733-5.074-1.228-11.004-1.338-17.744h19.088c-.114 6.85-.621 12.863-1.374 17.992-1.959.088-3.929.143-5.875.143zm6.875 18.424c1.602-3.604 2.871-8.141 3.827-13.203a202.94 202.94 0 007.183-.66c-2.814 6.168-6.612 11.006-11.01 13.863z"/></svg>