<svg xmlns="http://www.w3.org/2000/svg" xmlns:xlink="http://www.w3.org/1999/xlink" width="287.997" height="287.998"><defs><path id="a" d="M60.289 146.294v.682c0 54.322 39.63 90.877 85.411 90.877 31.432 0 50.84-16.295 62.565-29.898 7.189-8.342 13.709-19.316 14.536-30.527a22.61 22.61 0 00-.108-4.535c-.032-.215-.305-.313-.445-.152-20.192 23.432-45.392 12.766-61.719 23.926-9.765 6.676-9.636 12.244-10.743 15.34-.309.861-.577 1.977-.842 3.15 12.99 2.621 21.82-1.734 21.82-1.734l-6.668-7.273c19.864 1.75 34.744-6.074 34.744-6.074-12.723 9.912-24.911 10.584-24.911 10.584l5.091 4.943c-12.416 5.945-25.163 7.285-36.244 6.436-7.246-.383-14.313-1.898-20.955-4.496a3.332 3.332 0 00-.14-.051l.014-.002c-22.938-9.02-40.786-30.854-43.509-62.604-.081-.723-.161-1.24-.202-1.947-.253-4.127-.329-9.468.092-14.739 3.167-38.485 29.774-67.408 64.207-67.408 39.971 0 60.129 32.456 62.521 67.649h-58.25v16.084l4.39-.004h62.704c5.471.152 9.263-5.871 9.263-9.969 0-49.879-31.091-89.131-79.943-89.131-47.149-.003-82.679 40.309-82.679 90.873"/></defs><clipPath id="b"><use xlink:href="#a" overflow="visible"/></clipPath><linearGradient id="c" gradientUnits="userSpaceOnUse" x1="-276.726" y1="447.078" x2="-274.67" y2="447.078" gradientTransform="scale(-65.5085 65.5085) rotate(50.194 336.016 516.515)"><stop offset="0" stop-color="#0b489d"/><stop offset=".052" stop-color="#155596"/><stop offset=".099" stop-color="#1c608c"/><stop offset=".239" stop-color="#2e7d74"/><stop offset=".39" stop-color="#3c9362"/><stop offset=".554" stop-color="#45a354"/><stop offset=".741" stop-color="#4bac4c"/><stop offset="1" stop-color="#4daf4a"/></linearGradient><path clip-path="url(#b)" fill="url(#c)" d="M312.635 130.187L156.264 317.833-29.433 163.085 126.938-24.561z"/><path fill="#0B489D" d="M201.718 81.876c-4.416 3.557-8.779 7.17-13.038 10.907 9.036 11.565 14.271 26.59 15.848 42.383.175 1.746-1.188 3.271-2.942 3.271H146.64l-.028 16.081h67.037c5.471.152 9.261-5.869 9.261-9.971 0-24.647-7.61-46.677-21.192-62.671"/><path fill="#0B489D" d="M151.869 137.695v-.385c0-8.31-6.738-15.046-15.048-15.046h-14.256a5.294 5.294 0 00-5.293 5.295v4.195H101.7c-.832 0-1.506.674-1.506 1.503v4.942c0 .833.674 1.503 1.506 1.503h15.571v11.416H101.7c-.832 0-1.506.672-1.506 1.506v4.939c0 .83.674 1.504 1.506 1.504h15.571v4.299a5.296 5.296 0 005.293 5.295h14.256c7.812 0 14.229-5.953 14.972-13.568m-9.478-1.479a5.492 5.492 0 01-5.493 5.492h-8.549a1.446 1.446 0 01-1.445-1.445v-24.397c0-.799.647-1.445 1.445-1.445h8.549a5.499 5.499 0 015.493 5.492v16.303z"/><defs><path id="d" d="M222.248 172.739c-20.192 23.432-45.392 12.766-61.719 23.926-9.765 6.676-9.636 12.244-10.743 15.34-.309.861-.577 1.977-.842 3.15 12.99 2.621 21.82-1.734 21.82-1.734l-6.668-7.273c19.864 1.75 34.744-6.074 34.744-6.074-12.723 9.912-24.911 10.584-24.911 10.584l5.091 4.943c-12.527 5.998-25.391 7.311-36.54 6.41-.051-.004-.104-.004-.155-.008a3219.239 3219.239 0 01-5.344 15.4c2.877.293 5.785.449 8.719.449 31.432 0 50.84-16.295 62.565-29.898 7.189-8.342 13.709-19.316 14.536-30.527a22.61 22.61 0 00-.108-4.535.277.277 0 00-.269-.232.228.228 0 00-.176.079"/></defs><clipPath id="e"><use xlink:href="#d" overflow="visible"/></clipPath><linearGradient id="f" gradientUnits="userSpaceOnUse" x1="-273.962" y1="453.356" x2="-271.906" y2="453.356" gradientTransform="scale(-33.109 33.109) rotate(66.682 201.127 432.348)"><stop offset="0" stop-color="#4daf4a"/><stop offset="1" stop-color="#4daf4a"/></linearGradient><path clip-path="url(#e)" fill="url(#f)" d="M246.61 182.876l-37.16 86.213-96.167-41.449 37.162-86.215z"/></svg>