<svg version="1.0" xmlns="http://www.w3.org/2000/svg" width="346.667" height="346.667" viewBox="0 0 260 260"><path d="M0 130v47.8l13.3-.2 13.2-.1v-23.2c0-12.7.3-23.5.8-23.9.4-.4.7-.2.7.4 0 .7 3.2 8.2 7.1 16.7l7.1 15.5h14.3l7.5-16.8 7.5-16.8.5 24.1.5 24 12.8.2c7 .1 12.8-.2 12.8-.5.1-.4.3-21.9.3-47.8l.2-47.1-14.4-.1H69.8l-3.7 8.1c-9.5 20.6-11.8 25.5-14.2 30.7l-2.7 5.5-3.2-7c-1.8-3.9-4.6-9.9-6.3-13.5-1.6-3.6-4.7-10.3-6.8-15l-3.8-8.5-14.5-.2L0 82.2V130zm99.9-38.1v85.6l13 .1c12.7.2 13.1.1 13.2-2v-13.1c0-14.4 0-14.4 5.1-14 2.2.2 4.5.8 5 1.3s4.6 6.9 9.2 14.3l8.2 13.4 15.1.1 15.1.1-1.6-2.8c-1-1.5-4.2-6.8-7.2-11.6s-5.7-9.3-5.9-9.8c-.2-.6-1.7-2.9-3.2-5.2-1.6-2.3-2.9-4.5-2.9-4.8 0-.4 2-2.9 4.4-5.6 14.9-16.6 9.1-43.7-11.4-53.2-4.2-1.9-6.5-2.1-30.2-2.3l-25.8-.2-.1 9.7zm46.3 16.2c3.8 3.7 3.9 10.5.4 14.6-2.2 2.6-2.8 2.7-11.3 2.8l-9 .1v-10.3l-.1-10.2 8.6.1c8 .1 8.9.3 11.4 2.9z"/><path d="M168 83c0 .7 8.8 24.7 27.3 74.5l7.5 20 11 .1c9.4.1 11.2-.1 11.7-1.5.4-.9 8.1-21.9 17.2-46.6 9.1-24.8 16.8-45.5 17-46.1.3-.8-3.7-1.1-13.6-1.1-7.8-.1-14.1.1-14.1.3 0 .6-16.9 57.7-17.6 59.4-.3.8-4.4-11.3-9.1-27-4.6-15.7-8.9-29.5-9.5-30.7-1-2-1.7-2.1-14.4-2.1-7.4 0-13.4.4-13.4.8z"/></svg>