<svg xmlns="http://www.w3.org/2000/svg" width="88.202" height="101.382"><g data-name="Grupo 1024"><g data-name="Polígono 2" fill="#37992f" stroke="#37992f"><path d="M1.5 73.143V28.239a3.51 3.51 0 011.757-3.035l39.1-22.472a3.512 3.512 0 013.489 0l39.101 22.472a3.509 3.509 0 011.756 3.035v44.904a3.51 3.51 0 01-1.756 3.035L45.846 98.649a3.512 3.512 0 01-3.488 0L3.257 76.178A3.509 3.509 0 011.5 73.143z"/><path d="M85.203 28.239c0-.714-.384-1.379-1.003-1.734L45.098 4.033a2.007 2.007 0 00-1.993 0l-39.1 22.472A2.005 2.005 0 003 28.239v44.904c0 .714.384 1.378 1.003 1.734l39.101 22.472a2.007 2.007 0 001.993 0L84.2 74.877a2.005 2.005 0 001.003-1.734V28.239m3 0v44.904a5 5 0 01-2.509 4.335l-39.1 22.472a5 5 0 01-4.983 0L2.509 77.478a5 5 0 01-2.508-4.335V28.239a5 5 0 012.508-4.335L41.611 1.432a5 5 0 014.982 0l39.101 22.472a5 5 0 012.509 4.335z" fill="#fff"/></g><g data-name="Grupo 535"><g data-name="Grupo 504"><g data-name="Grupo 503"><path data-name="Trazado 1592" d="M30.751 31.131a3.139 3.139 0 103.139 3.139 3.142 3.142 0 00-3.139-3.139zm0 5.024a1.886 1.886 0 111.886-1.886 1.888 1.888 0 01-1.886 1.886z" fill="#fff"/></g></g><g data-name="Grupo 506"><g data-name="Grupo 505"><path data-name="Trazado 1593" d="M30.75 27.781a.626.626 0 00-.626.626v.837a.626.626 0 101.253 0v-.837a.626.626 0 00-.627-.626z" fill="#fff"/></g></g><g data-name="Grupo 508"><g data-name="Grupo 507"><path data-name="Trazado 1594" d="M27.64 30.274l-.592-.592a.626.626 0 10-.886.886l.592.592a.626.626 0 10.886-.886z" fill="#fff"/></g></g><g data-name="Grupo 510"><g data-name="Grupo 509"><path data-name="Trazado 1595" d="M25.726 33.643h-.837a.626.626 0 000 1.253h.837a.626.626 0 100-1.253z" fill="#fff"/></g></g><g data-name="Grupo 512"><g data-name="Grupo 511"><path data-name="Trazado 1596" d="M27.64 38.25a.627.627 0 00-.886 0l-.592.592a.626.626 0 10.886.886l.592-.592a.626.626 0 000-.886z" fill="#fff"/></g></g><g data-name="Grupo 514"><g data-name="Grupo 513"><path data-name="Trazado 1597" d="M30.75 39.681a.626.626 0 00-.626.626v.837a.626.626 0 101.253 0v-.837a.626.626 0 00-.627-.626z" fill="#fff"/></g></g><g data-name="Grupo 516"><g data-name="Grupo 515"><path data-name="Trazado 1598" d="M35.339 38.843l-.592-.592a.626.626 0 00-.886.886l.592.592a.626.626 0 00.886-.886z" fill="#fff"/></g></g><g data-name="Grupo 518"><g data-name="Grupo 517"><path data-name="Trazado 1599" d="M36.607 33.643h-.837a.626.626 0 000 1.253h.837a.626.626 0 000-1.253z" fill="#fff"/></g></g><g data-name="Grupo 520"><g data-name="Grupo 519"><path data-name="Trazado 1600" d="M35.338 29.682a.626.626 0 00-.886 0l-.592.592a.626.626 0 10.886.886l.592-.592a.626.626 0 000-.886z" fill="#fff"/></g></g><g data-name="Grupo 522"><g data-name="Grupo 521"><path data-name="Trazado 1601" d="M48.119 63.63v-.033a.6.6 0 00-.01-.065l-1.115-5.3v-.006l-1.115-5.3v-.006l-1.116-5.3a.626.626 0 00-.613-.5h-26.8a.626.626 0 00-.613.5l-1.116 5.3v.007l-1.115 5.3-1.115 5.3a.638.638 0 00-.01.068v2.573a.626.626 0 00.626.626h14.861v3.519h-4.817a.626.626 0 00-.626.626v1.886h-6.073a.626.626 0 000 1.253h26.8a.626.626 0 000-1.253h-6.076v-1.878a.626.626 0 00-.626-.626h-4.817v-3.519h14.865a.626.626 0 00.626-.626v-2.508c0-.021-.005-.028-.005-.038zm-1.4-.6h-9.8l-.284-4.051h9.241zm-1.969-9.354l.853 4.051h-9.058l-.284-4.051zm-1.117-5.3l.853 4.051h-8.314l-.284-4.051zm-16.773 0h7.765l.284 4.051h-8.325zm-.372 5.3h8.509l.284 4.051h-9.07zm-.372 5.3h9.253l.284 4.051h-9.814zm-8.264-10.607h7.752l-.284 4.051h-8.313zm-1.116 5.3h8.5l-.284 4.051h-9.061zM36.819 71.57v1.26H24.677v-1.26h12.142zm-6.7-1.253v-3.519h1.26v3.519zm1.893-4.771H14.629v-1.26h2.984a.626.626 0 100-1.253h-2.839l.853-4.051h9.241l-.284 4.051h-4.265a.626.626 0 100 1.253h26.553v1.26H32.014z" fill="#fff"/></g></g><g data-name="Grupo 524"><g data-name="Grupo 523"><path data-name="Trazado 1606" d="M74.485 53.273l-.705-.443-9.8-6.156-1.086-.682a2.666 2.666 0 00.067-.595 2.446 2.446 0 00-1.637-2.366v-.52h1.025a.654.654 0 00.625-.68 1.063 1.063 0 011.014-1.1.654.654 0 00.625-.68v-8.917a2.372 2.372 0 00-2.265-2.464h-1.025v-.209a.627.627 0 10-1.249 0v14.568a2.446 2.446 0 00-1.638 2.366 2.666 2.666 0 00.067.594l-.412.259-.512-.966a.6.6 0 00-.853-.249.971.971 0 01-1.385-.4.6.6 0 00-.856-.252l-7.091 4.457a2.431 2.431 0 00-1.054 1.5 2.638 2.638 0 00.226 1.869l.512.966-.166.1a.714.714 0 00-.229.929.617.617 0 00.542.34.583.583 0 00.312-.091l.706-.444 9.929-6.24.954-.6q.059.062.122.119l-.339 9.75a10.282 10.282 0 01-3.624-1.424 11.046 11.046 0 01-2.458-2.109.589.589 0 00-.883-.026.723.723 0 00-.024.961 12.32 12.32 0 002.74 2.352 11.45 11.45 0 004.209 1.615l-.4 11.644h-5.13a.654.654 0 00-.625.68v1.994h-5.115a.683.683 0 000 1.36h26.2a.683.683 0 000-1.36h-5.106v-1.995a.654.654 0 00-.625-.68h-5.13l-.4-11.647a11.387 11.387 0 001.175-.262.687.687 0 00.449-.828.622.622 0 00-.761-.489q-.454.127-.911.21l-.274-7.89a.647.647 0 00.186.18 1.089 1.089 0 01.472.67 1.182 1.182 0 01-.1.837.732.732 0 00-.062.516.675.675 0 00.291.413l7.091 4.457a2.11 2.11 0 001.128.33 2.236 2.236 0 001.964-1.231l.512-.966.166.1a.584.584 0 00.312.091.617.617 0 00.542-.34.714.714 0 00-.233-.926zm-26.32-.785l-.512-.966a1.182 1.182 0 01-.1-.837 1.089 1.089 0 01.472-.67l6.626-4.164a2.147 2.147 0 002.118.618l.244.46zM61.323 30.03h1.025a1.063 1.063 0 011.014 1.1v8.329a2.382 2.382 0 00-1.551 1.688h-.488V30.03zm-.625 14.262a1.107 1.107 0 11-1.013 1.1 1.062 1.062 0 011.014-1.1zm-.013 14.265c.2 0 .4-.007.605-.018l.4 11.509h-1.98l.4-11.508c.19.011.381.017.575.017zm-.528-1.376l.324-9.336a2.036 2.036 0 00.434 0l.324 9.334a9.85 9.85 0 01-1.082.002zm7.285 14.227v1.314H53.955v-1.314zm-5.257-23.044l-.037-1.078c.042-.038.082-.078.121-.119l.413.26zm9.913 6.269a.971.971 0 01-1.385.4l-6.628-4.16a2.661 2.661 0 00-.011-1.233 2.513 2.513 0 00-.557-1.074l.244-.459.321.2 8.526 5.359z" fill="#fff"/></g></g><g data-name="Grupo 526"><g data-name="Grupo 525"><path data-name="Trazado 1607" d="M69.332 36.449a.625.625 0 00-.892.874 10.856 10.856 0 012.647 10.681.626.626 0 101.2.357 12.106 12.106 0 00-2.952-11.912z" fill="#fff"/></g></g><g data-name="Grupo 528"><g data-name="Grupo 527"><path data-name="Trazado 1608" d="M67.601 34.041a12.327 12.327 0 00-.863-.549.625.625 0 10-.626 1.081c.263.152.524.318.774.492a.625.625 0 00.715-1.025z" fill="#fff"/></g></g><g data-name="Grupo 530"><g data-name="Grupo 529"><path data-name="Trazado 1609" d="M58.635 32.664a.625.625 0 00-.753-.462 12.106 12.106 0 00-8.833 8.52.625.625 0 101.2.335 10.856 10.856 0 017.921-7.639.625.625 0 00.465-.754z" fill="#fff"/></g></g><g data-name="Grupo 532"><g data-name="Grupo 531"><path data-name="Trazado 1610" d="M49.323 43.741a.625.625 0 00-.675.57c-.029.339-.043.683-.043 1.022a.625.625 0 001.249 0c0-.3.013-.612.039-.916a.625.625 0 00-.57-.676z" fill="#fff"/></g></g><g data-name="Grupo 534"><g data-name="Grupo 533"><path data-name="Trazado 1611" d="M66.973 55.929a.625.625 0 00-.853-.229c-.264.152-.537.295-.813.424a.625.625 0 10.53 1.132c.307-.144.612-.3.907-.472a.625.625 0 00.229-.855z" fill="#fff"/></g></g></g></g></svg>