<svg xmlns="http://www.w3.org/2000/svg" width="88.202" height="101.382"><g data-name="Grupo 1018"><g data-name="Polígono 2" fill="#fab102" stroke="#fab102"><path d="M1.5 73.143V28.239a3.51 3.51 0 011.756-3.035l39.1-22.472a3.512 3.512 0 013.489 0l39.101 22.472a3.509 3.509 0 011.756 3.035v44.904a3.51 3.51 0 01-1.756 3.035L45.845 98.649a3.512 3.512 0 01-3.488 0L3.256 76.178A3.509 3.509 0 011.5 73.143z"/><path d="M85.202 28.239c0-.714-.384-1.379-1.003-1.734L45.097 4.033a2.007 2.007 0 00-1.993 0l-39.1 22.472A2.005 2.005 0 003 28.239v44.904c0 .714.384 1.378 1.003 1.734l39.101 22.472a2.007 2.007 0 001.993 0L84.2 74.877a2.005 2.005 0 001.003-1.734V28.239m3 0v44.904a5 5 0 01-2.509 4.335l-39.1 22.472a5 5 0 01-4.983 0L2.508 77.478A5 5 0 010 73.143V28.239a5 5 0 012.508-4.335L41.61 1.432a5 5 0 014.982 0l39.101 22.472a5 5 0 012.509 4.335z" fill="#fff"/></g><path d="M67.003 25.723H56.036a2.314 2.314 0 00-1.76.811h-3.045a8.986 8.986 0 00-6.194 2.738 9.1 9.1 0 00-1.132 1.43 9.1 9.1 0 00-1.132-1.43 8.984 8.984 0 00-6.19-2.734H33.54a2.314 2.314 0 00-1.76-.815H20.813a2.321 2.321 0 00-2.321 2.321v2.941h.733c0 2.067 2.3 3.687 5.239 3.687s5.239-1.62 5.239-3.687h4.4v-1.612h2.392a6.166 6.166 0 016 6.193v42.111h-4.323v3.583h11.471v-3.583h-4.316V35.568a6.166 6.166 0 016-6.193h2.392v1.61h4.4c0 2.067 2.3 3.687 5.239 3.687s5.239-1.62 5.239-3.687h.722v-2.941a2.321 2.321 0 00-2.316-2.321zm-42.539 7.671c-2.147 0-3.961-1.1-3.961-2.41h7.923c-.001 1.307-1.815 2.41-3.962 2.41zm38.888 0c-2.147 0-3.961-1.1-3.961-2.41h7.923c-.001 1.307-1.815 2.41-3.962 2.41z" fill="#fff"/></g></svg>