<svg xmlns="http://www.w3.org/2000/svg" width="88.202" height="99.804"><g data-name="Grupo 1025"><g data-name="Trazado 1376" fill="#37992f" stroke="#37992f"><path d="M1.5 72.27V27.533c0-1.3.7-2.511 1.828-3.16L42.285 1.985a3.657 3.657 0 013.632 0l38.956 22.388a3.654 3.654 0 011.829 3.16V72.27c0 1.301-.7 2.512-1.829 3.16L45.917 97.82a3.657 3.657 0 01-3.632 0L3.328 75.43A3.654 3.654 0 011.5 72.27z"/><path d="M85.202 27.533a2.15 2.15 0 00-1.076-1.859L45.17 3.285a2.152 2.152 0 00-2.138 0L4.076 25.674A2.15 2.15 0 003 27.534V72.27a2.15 2.15 0 001.076 1.86l38.956 22.388c.66.38 1.478.38 2.138 0L84.126 74.13a2.15 2.15 0 001.076-1.86V27.533m3 0V72.27a5.145 5.145 0 01-2.581 4.46L46.664 99.12a5.145 5.145 0 01-5.127 0L2.581 76.73A5.145 5.145 0 010 72.27V27.533c0-1.841.984-3.542 2.581-4.46L41.537.684a5.145 5.145 0 015.127 0l38.957 22.389a5.145 5.145 0 012.581 4.46z" fill="#fff"/></g><g data-name="Grupo 538"><g data-name="Grupo 504"><g data-name="Grupo 503"><path data-name="Trazado 1592" d="M43.864 19.709a3.414 3.414 0 103.414 3.414 3.418 3.418 0 00-3.414-3.414zm0 5.466a2.052 2.052 0 112.052-2.051 2.054 2.054 0 01-2.052 2.051z" fill="#fff"/></g></g><g data-name="Grupo 506"><g data-name="Grupo 505"><path data-name="Trazado 1593" d="M43.864 16.065a.681.681 0 00-.681.681v.911a.681.681 0 101.363 0v-.911a.681.681 0 00-.682-.681z" fill="#fff"/></g></g><g data-name="Grupo 508"><g data-name="Grupo 507"><path data-name="Trazado 1594" d="M40.481 18.777l-.644-.644a.681.681 0 10-.963.964l.644.644a.681.681 0 10.963-.964z" fill="#fff"/></g></g><g data-name="Grupo 510"><g data-name="Grupo 509"><path data-name="Trazado 1595" d="M38.399 22.441h-.911a.681.681 0 000 1.363h.911a.681.681 0 100-1.363z" fill="#fff"/></g></g><g data-name="Grupo 512"><g data-name="Grupo 511"><path data-name="Trazado 1596" d="M40.481 27.454a.682.682 0 00-.964 0l-.644.644a.681.681 0 10.964.963l.644-.644a.681.681 0 000-.963z" fill="#fff"/></g></g><g data-name="Grupo 514"><g data-name="Grupo 513"><path data-name="Trazado 1597" d="M43.864 29.01a.681.681 0 00-.681.681v.911a.681.681 0 101.363 0v-.911a.681.681 0 00-.682-.681z" fill="#fff"/></g></g><g data-name="Grupo 516"><g data-name="Grupo 515"><path data-name="Trazado 1598" d="M48.855 28.098l-.644-.644a.681.681 0 00-.964.963l.644.644a.681.681 0 00.964-.963z" fill="#fff"/></g></g><g data-name="Grupo 518"><g data-name="Grupo 517"><path data-name="Trazado 1599" d="M50.241 22.441h-.911a.681.681 0 000 1.363h.911a.681.681 0 100-1.363z" fill="#fff"/></g></g><g data-name="Grupo 520"><g data-name="Grupo 519"><path data-name="Trazado 1600" d="M48.855 18.133a.681.681 0 00-.964 0l-.644.644a.682.682 0 10.964.964l.644-.644a.681.681 0 000-.964z" fill="#fff"/></g></g><g data-name="Grupo 522"><g data-name="Grupo 521"><path data-name="Trazado 1601" d="M62.762 68.563v-.036a.652.652 0 00-.011-.071l-1.213-5.763v-.006l-1.213-5.763v-.006l-1.217-5.77a.681.681 0 00-.667-.541H29.29a.681.681 0 00-.667.541l-1.215 5.768v.007l-1.213 5.763v.005l-1.213 5.763a.7.7 0 00-.011.074v2.803a.681.681 0 00.681.681h16.17v3.828h-5.24a.681.681 0 00-.681.681v2.052H29.29a.681.681 0 100 1.363h29.148a.681.681 0 000-1.363h-6.6v-2.052a.681.681 0 00-.681-.681h-5.249v-3.828h16.17a.681.681 0 00.681-.681v-2.73c.005-.016.004-.027.003-.038zm-1.519-.649H50.572l-.309-4.407h10.052zm-2.142-10.176l.928 4.407h-9.862l-.309-4.407zm-1.215-5.769l.928 4.407h-9.052l-.309-4.407zm-18.245 0h8.446l.309 4.407h-9.064zm-.4 5.769h9.256l.309 4.407h-9.879zm-.4 5.769h10.056l.309 4.406H38.522zm-8.989-11.538h8.433l-.309 4.407h-9.061zm-1.214 5.769h9.242l-.309 4.407H27.7zM50.48 77.199v1.37H37.258v-1.37H50.47zm-7.291-1.363v-3.828h1.37v3.828zm2.06-5.19H26.328v-1.37h3.246a.681.681 0 000-1.363h-3.088l.928-4.407h10.052l-.309 4.406h-4.638a.681.681 0 100 1.363h28.882v1.37H45.239z" fill="#fff"/></g></g><g data-name="Grupo 536"><g data-name="Grupo 521"><path data-name="Trazado 1601" d="M80.532 54.228v-.018a.328.328 0 00-.005-.035l-.6-2.866-.6-2.866-.6-2.869a.339.339 0 00-.332-.269h-14.5a.339.339 0 00-.332.269l-.6 2.868-.6 2.866-.6 2.866a.346.346 0 00-.006.037v1.392a.339.339 0 00.339.339h8.041v1.9H67.51a.339.339 0 00-.339.339v1.02h-3.285a.339.339 0 000 .678h14.492a.339.339 0 000-.678h-3.282v-1.02a.339.339 0 00-.339-.339h-2.605v-1.9h8.041a.339.339 0 00.339-.339v-1.375zm-.756-.323H74.47l-.154-2.191h5zm-1.065-5.06l.461 2.191h-4.9l-.154-2.191zm-.6-2.869l.461 2.191h-4.5l-.154-2.191zm-9.073 0h4.2l.154 2.191h-4.514zm-.2 2.869h4.6l.154 2.191h-4.914zm-.2 2.869h5.006l.154 2.191h-5.32zm-4.47-5.738h4.194l-.154 2.191h-4.5zm-.6 2.869h4.6l-.154 2.191h-4.9zm10.851 9.677v.681h-6.571v-.681h6.57zm-3.626-.678v-1.9h.685v1.9zm1.024-2.581h-9.4v-.681h1.614a.339.339 0 000-.678h-1.54l.461-2.191h5l-.154 2.191h-2.306a.339.339 0 000 .678h14.363v.681h-8.038z" fill="#fff"/></g></g><g data-name="Grupo 537"><g data-name="Grupo 521"><path data-name="Trazado 1601" d="M25.999 54.228v-.018a.328.328 0 00-.005-.035l-.6-2.866-.6-2.866-.6-2.869a.339.339 0 00-.332-.269h-14.5a.339.339 0 00-.332.269l-.6 2.868-.6 2.866-.6 2.866a.346.346 0 00-.006.037v1.392a.339.339 0 00.339.339h8.041v1.9h-2.627a.339.339 0 00-.339.339v1.02H9.353a.339.339 0 000 .678h14.492a.339.339 0 000-.678h-3.282v-1.02a.339.339 0 00-.339-.339h-2.605v-1.9h8.041a.339.339 0 00.339-.339v-1.375zm-.756-.323h-5.306l-.154-2.191h5zm-1.065-5.06l.461 2.191h-4.9l-.154-2.191zm-.6-2.869l.461 2.191h-4.5l-.154-2.191zm-9.073 0h4.2l.154 2.191h-4.514zm-.2 2.869h4.6l.154 2.191h-4.914zm-.2 2.869h5.006l.154 2.191h-5.32zm-4.47-5.738h4.194l-.154 2.191h-4.5zm-.6 2.869h4.6l-.154 2.191h-4.9zm10.851 9.677v.681h-6.571v-.681h6.57zm-3.626-.678v-1.9h.685v1.9zm1.024-2.581h-9.4v-.681h1.614a.339.339 0 000-.678h-1.54l.461-2.191h5l-.154 2.191h-2.306a.339.339 0 000 .678h14.363v.681h-8.038z" fill="#fff"/></g></g></g></g></svg>