<svg xmlns="http://www.w3.org/2000/svg" width="88.202" height="99.804"><g data-name="Grupo 1022"><g data-name="Trazado 1376" fill="#fab102" stroke="#fab102"><path d="M1.5 72.27V27.533c0-1.3.7-2.511 1.828-3.16L42.285 1.985a3.657 3.657 0 013.632 0l38.956 22.388a3.654 3.654 0 011.829 3.16V72.27c0 1.301-.7 2.512-1.829 3.16L45.917 97.82a3.657 3.657 0 01-3.632 0L3.328 75.43A3.654 3.654 0 011.5 72.27z"/><path d="M85.202 27.533a2.15 2.15 0 00-1.076-1.859L45.17 3.285a2.152 2.152 0 00-2.138 0L4.076 25.674A2.15 2.15 0 003 27.534V72.27a2.15 2.15 0 001.076 1.86l38.956 22.388c.66.38 1.478.38 2.138 0L84.126 74.13a2.15 2.15 0 001.076-1.86V27.533m3 0V72.27a5.145 5.145 0 01-2.581 4.46L46.664 99.12a5.145 5.145 0 01-5.127 0L2.581 76.73A5.145 5.145 0 010 72.27V27.533c0-1.841.984-3.542 2.581-4.46L41.537.684a5.145 5.145 0 015.127 0l38.957 22.389a5.145 5.145 0 012.581 4.46z" fill="#fff"/></g><g data-name="Grupo 565"><g data-name="Grupo 492"><g data-name="Grupo 491"><path data-name="Trazado 1579" d="M24.884 46.103a.822.822 0 00-.822.822v13.158a.823.823 0 101.645 0V46.925a.822.822 0 00-.823-.822z" fill="#fff"/></g></g><g data-name="Grupo 494"><g data-name="Grupo 493"><path data-name="Trazado 1580" d="M21.581 59.933l-2.467-13.158a.822.822 0 00-1.628.234c0 .023.008.046.013.069l2.467 13.158a.822.822 0 101.615-.3z" fill="#fff"/></g></g><g data-name="Grupo 496"><g data-name="Grupo 495"><path data-name="Trazado 1581" d="M31.655 46.09a.823.823 0 00-.987.615q-.008.034-.013.069l-2.467 13.158a.822.822 0 101.615.3l2.467-13.158a.822.822 0 00-.615-.984z" fill="#fff"/></g></g><g data-name="Grupo 498"><g data-name="Grupo 497"><path data-name="Trazado 1582" d="M40.138 42.814a15.214 15.214 0 10-29.868 0 7.26 7.26 0 00.413 1.645 13.66 13.66 0 00.7 1.824l6.1 18.048v4.8a2.467 2.467 0 002.468 2.463h1.761a3.274 3.274 0 006.345 0h1.761a2.467 2.467 0 002.467-2.467v-4.783l6.475-17.525c.383-.759.956-2.359.956-2.359zm-15.253 29.6a1.645 1.645 0 01-1.424-.822h2.847a1.645 1.645 0 01-1.423.827zm5.757-3.289a.822.822 0 01-.822.822h-9.869a.822.822 0 01-.827-.817v-.822h11.513zm0-2.467H19.124v-1.64h11.513zm6.633-20.55a.907.907 0 00-.039.09l-6.347 17.17H18.896l-5.967-17.653a1.169 1.169 0 00-.033-.082 14.758 14.758 0 01-.473-1.174h25.566a13.711 13.711 0 01-.714 1.654zm1.189-3.3H11.952a13.492 13.492 0 011.82-10.179 13.569 13.569 0 0124.692 10.185z" fill="#fff"/></g></g><g data-name="Grupo 500"><g data-name="Grupo 499"><path data-name="Trazado 1583" d="M21.056 29.812a11.472 11.472 0 00-2.4 1.432l1.007 1.3a9.934 9.934 0 012.056-1.228z" fill="#fff"/></g></g><g data-name="Grupo 502"><g data-name="Grupo 501"><path data-name="Trazado 1584" d="M17.009 32.808a11.513 11.513 0 00-2.815 7.543h1.645a9.863 9.863 0 012.412-6.465z" fill="#fff"/></g></g><g fill="#fff"><path data-name="Trazado 1685" d="M79.187 60.111h-1.3a9.513 9.513 0 00-.815-1.972l.92-.919a.786.786 0 000-1.112l-2.665-2.665a.786.786 0 00-1.112 0l-.916.916a9.517 9.517 0 00-1.974-.82v-1.297a.786.786 0 00-.786-.786h-3.776a.786.786 0 00-.786.786v1.291a9.508 9.508 0 00-1.978.819l-.912-.912a.78.78 0 00-.755-.2v-3.688a.786.786 0 00-.786-.786h-1.3a9.518 9.518 0 00-.815-1.971l.92-.92a.786.786 0 000-1.112l-2.664-2.665a.786.786 0 00-1.112 0l-.916.916a9.5 9.5 0 00-1.974-.82V40.9a.786.786 0 00-.786-.786h-3.774a.786.786 0 00-.786.786v1.291a9.509 9.509 0 00-1.978.819l-.912-.912a.786.786 0 00-1.112 0l-2.667 2.665a.786.786 0 000 1.112l.912.912a9.531 9.531 0 00-.819 1.978h-1.29a.787.787 0 00-.786.787v3.769a.786.786 0 00.786.786h1.294a9.512 9.512 0 00.82 1.974l-.916.916a.786.786 0 000 1.112l2.665 2.665a.786.786 0 001.112 0l.92-.92a9.517 9.517 0 001.971.815v1.3a.786.786 0 00.786.786h3.769a.786.786 0 00.786-.786v-1.3a9.524 9.524 0 001.968-.816l.923.924a.781.781 0 00.755.2v3.684a.787.787 0 00.786.786h1.294a9.518 9.518 0 00.82 1.974l-.916.916a.786.786 0 000 1.112l2.665 2.665a.786.786 0 001.112 0l.92-.92a9.516 9.516 0 001.971.815v1.3a.786.786 0 00.786.786h3.769a.786.786 0 00.786-.786v-1.3a9.506 9.506 0 001.968-.816l.923.923a.786.786 0 001.112 0l2.665-2.665a.787.787 0 000-1.112l-.923-.924a9.528 9.528 0 00.816-1.967h1.3a.787.787 0 00.786-.786v-3.769a.787.787 0 00-.779-.782zm-19.088-1.752a9.5 9.5 0 00-.7 1.749H58.35zm-.577-2.467a9.509 9.509 0 00.718-1.784h1.067zm-3.195 2.419a.786.786 0 00-.981-.105 7.974 7.974 0 01-2.619 1.086.786.786 0 00-.619.768v1.13h-2.2v-1.132a.786.786 0 00-.62-.768 7.975 7.975 0 01-2.623-1.084.786.786 0 00-.978.105l-.8.8-1.549-1.557.794-.794a.786.786 0 00.105-.982 7.964 7.964 0 01-1.09-2.625.787.787 0 00-.768-.619H41.26v-2.2h1.117a.786.786 0 00.768-.62 7.967 7.967 0 011.088-2.629.786.786 0 00-.106-.981l-.789-.79 1.549-1.548.789.789a.787.787 0 00.981.105 7.966 7.966 0 012.63-1.088.786.786 0 00.62-.769v-1.117h2.2v1.119a.786.786 0 00.619.768 7.968 7.968 0 012.626 1.09.787.787 0 00.982-.105l.794-.794 1.553 1.553-.8.8a.786.786 0 00-.106.98 7.972 7.972 0 011.085 2.623.786.786 0 00.768.62h1.128v2.2h-1.13a.786.786 0 00-.768.619 7.972 7.972 0 01-1.086 2.619.786.786 0 00.105.981l.8.8-1.55 1.552zm22.071 5.57h-1.131a.786.786 0 00-.768.619 7.976 7.976 0 01-1.086 2.619.786.786 0 00.105.981l.8.8-1.553 1.553-.8-.8a.786.786 0 00-.981-.105 7.97 7.97 0 01-2.619 1.086.787.787 0 00-.619.768v1.13h-2.2v-1.128a.786.786 0 00-.62-.768 7.97 7.97 0 01-2.623-1.085.787.787 0 00-.981.106l-.8.8-1.553-1.553.794-.794a.787.787 0 00.105-.982 7.969 7.969 0 01-1.09-2.625.787.787 0 00-.768-.619h-1.12v-2.2h1.117a.786.786 0 00.768-.62 7.974 7.974 0 011.088-2.629.786.786 0 00-.105-.981l-.789-.79 1.561-1.553.789.789a.786.786 0 00.981.105 7.974 7.974 0 012.63-1.094.786.786 0 00.62-.768v-1.115h2.2v1.12a.786.786 0 00.619.768 7.977 7.977 0 012.625 1.09.786.786 0 00.982-.105l.794-.794 1.553 1.553-.8.8a.786.786 0 00-.106.98 7.974 7.974 0 011.085 2.623.786.786 0 00.768.62h1.128zm0 0"/><path data-name="Trazado 1686" d="M65.312 60.228a.783.783 0 00.556-.231l.01-.01a.786.786 0 10-1.107-1.117l-.015.015a.786.786 0 00.556 1.342zm0 0"/><path data-name="Trazado 1687" d="M67.307 57.441a.786.786 0 00.381 1.526 3.931 3.931 0 11-2.9 3.062.786.786 0 10-1.544-.3 5.5 5.5 0 104.063-4.288zm0 0"/><path data-name="Trazado 1688" d="M71.007 62.777a2.359 2.359 0 10-2.359 2.359 2.361 2.361 0 002.359-2.359zm-3.145 0a.786.786 0 11.786.786.787.787 0 01-.786-.786zm0 0"/><path data-name="Trazado 1689" d="M53.806 48.672a.784.784 0 001.11-.006.789.789 0 00-.006-1.114l-.01-.01a.786.786 0 00-1.1 1.12zm0 0"/><path data-name="Trazado 1690" d="M55.6 50.094a.786.786 0 00-.688.874 3.931 3.931 0 11-3.278-3.413.786.786 0 00.248-1.553 5.524 5.524 0 00-4.765 1.543 5.5 5.5 0 109.357 3.237.787.787 0 00-.874-.688zm0 0"/><path data-name="Trazado 1691" d="M48.65 51.436a2.359 2.359 0 102.359-2.359 2.361 2.361 0 00-2.359 2.359zm3.145 0a.786.786 0 11-.786-.786.787.787 0 01.786.786zm0 0"/><path data-name="Trazado 1692" d="M79.184 39.876h-1.551a7.019 7.019 0 00-.886-1.532L77.523 37a.786.786 0 00-.288-1.074l-3.424-1.977a.786.786 0 00-1.074.288l-.776 1.344a7.188 7.188 0 00-1.769 0l-.776-1.344a.786.786 0 00-1.074-.288l-3.425 1.978a.786.786 0 00-.288 1.074l.776 1.344a7.045 7.045 0 00-.886 1.532h-1.551a.787.787 0 00-.786.786v3.955a.787.787 0 00.786.786h1.551a7.046 7.046 0 00.886 1.532l-.776 1.344a.786.786 0 00.288 1.074l3.425 1.978a.786.786 0 001.074-.288l.776-1.344a7.219 7.219 0 001.769 0l.776 1.344a.786.786 0 001.074.288l3.425-1.978a.786.786 0 00.288-1.074l-.776-1.344a7.045 7.045 0 00.886-1.532h1.551a.786.786 0 00.786-.786v-3.955a.786.786 0 00-.786-.786zm-.786 3.955h-1.309a.786.786 0 00-.747.541 5.5 5.5 0 01-1.134 1.961.786.786 0 00-.095.917l.655 1.135-2.063 1.191-.655-1.134a.786.786 0 00-.841-.377 5.622 5.622 0 01-2.267 0 .787.787 0 00-.841.377l-.655 1.134-2.063-1.191.655-1.135a.786.786 0 00-.095-.917 5.5 5.5 0 01-1.134-1.961.786.786 0 00-.747-.541h-1.309v-2.382h1.315a.786.786 0 00.747-.541 5.5 5.5 0 011.13-1.965.786.786 0 00.095-.917l-.655-1.135 2.063-1.191.655 1.134a.787.787 0 00.841.377 5.622 5.622 0 012.267 0 .787.787 0 00.841-.377l.655-1.134 2.061 1.195-.655 1.135a.786.786 0 00.095.917 5.5 5.5 0 011.134 1.961.786.786 0 00.747.541h1.309zm0 0"/><path data-name="Trazado 1693" d="M71.077 39.009a3.627 3.627 0 103.627 3.627 3.631 3.631 0 00-3.627-3.627zm0 5.682a2.055 2.055 0 112.055-2.055 2.057 2.057 0 01-2.055 2.058zm0 0"/></g></g></g></svg>