<svg xmlns="http://www.w3.org/2000/svg" width="88.202" height="101.382"><g data-name="Grupo 1020"><g data-name="Polígono 1" fill="#fab102" stroke="#fab102"><path d="M1.5 73.143V28.239a3.51 3.51 0 011.756-3.035l39.1-22.472a3.512 3.512 0 013.489 0l39.101 22.472a3.509 3.509 0 011.756 3.035v44.904a3.51 3.51 0 01-1.756 3.035L45.845 98.649a3.512 3.512 0 01-3.488 0L3.256 76.178A3.509 3.509 0 011.5 73.143z"/><path d="M85.202 28.239c0-.714-.384-1.379-1.003-1.734L45.097 4.033a2.007 2.007 0 00-1.993 0l-39.1 22.472A2.005 2.005 0 003 28.239v44.904c0 .714.384 1.378 1.003 1.734l39.101 22.472a2.007 2.007 0 001.993 0L84.2 74.877a2.005 2.005 0 001.003-1.734V28.239m3 0v44.904a5 5 0 01-2.509 4.335l-39.1 22.472a5 5 0 01-4.983 0L2.508 77.478A5 5 0 010 73.143V28.239a5 5 0 012.508-4.335L41.61 1.432a5 5 0 014.982 0l39.101 22.472a5 5 0 012.509 4.335z" fill="#fff"/></g><g data-name="Grupo 557"><g fill="#fff"><path data-name="Trazado 1633" d="M18.337 69.696h21.986v-1.691H19.182V30.797h21.141v5.074a.846.846 0 00.846.846h5.074v5.919h1.691V26.569a.846.846 0 00-.843-.846H18.337a.846.846 0 00-.846.846v42.282a.846.846 0 00.846.845zm23.678-34.673v-3.03l3.032 3.03zm4.228-7.611v6.417l-4.476-4.476a.832.832 0 00-.249-.169.984.984 0 00-.076-.028.844.844 0 00-.223-.044c-.017 0-.033-.007-.05-.007H19.182v-1.691zm0 0"/><path data-name="Trazado 1634" d="M25.101 40.199l3 1.507a.845.845 0 001.081-.287l2.679-4.025 2.679 4.018a.845.845 0 001.3.129l2.785-2.782 2.785 2.785 1.2-1.2-3.383-3.383a.846.846 0 00-1.2 0l-2.647 2.662-2.807-4.221a.879.879 0 00-1.407 0l-2.969 4.453-2.715-1.358a.845.845 0 00-.756 0l-2.159 1.08v-3.706h-1.694v8.452a.846.846 0 00.846.846h20.3v-1.687H22.565v-2.014zm0 0"/><path data-name="Trazado 1635" d="M38.633 53.634a5.074 5.074 0 10-4.328 5.022 5.059 5.059 0 004.328-5.022zm-4.228-1.58v-1.691a3.38 3.38 0 011.409.756zm-.846 4.962a3.383 3.383 0 01-.846-6.658v3.276a.845.845 0 00.446.746.886.886 0 00.2.076c.026.006.053.006.079.009a.722.722 0 00.115.014h.019a.838.838 0 00.157-.024c.026 0 .051-.008.076-.014a.867.867 0 00.218-.1l2.724-1.816a3.345 3.345 0 01.19 1.11 3.383 3.383 0 01-3.378 3.377zm0 0"/><path data-name="Trazado 1636" d="M20.874 50.247h5.919v1.691h-5.919zm0 0"/><path data-name="Trazado 1637" d="M20.874 46.864h7.611v1.691h-7.611zm0 0"/><path data-name="Trazado 1638" d="M20.874 53.629h5.919v1.691h-5.919zm0 0"/><path data-name="Trazado 1639" d="M20.874 57.012h5.919v1.691h-5.919zm0 0"/><path data-name="Trazado 1640" d="M20.874 60.394h15.222v1.691H20.874zm0 0"/><path data-name="Trazado 1641" d="M20.874 63.777h7.611v1.691h-7.611zm0 0"/><path data-name="Trazado 1642" d="M30.176 63.777h5.919v1.691h-5.919zm0 0"/><path data-name="Trazado 1643" d="M20.874 32.488h1.691v1.691h-1.691zm0 0"/><path data-name="Trazado 1644" d="M24.256 32.488h1.691v1.691h-1.691zm0 0"/><path data-name="Trazado 1645" d="M27.639 32.488h1.691v1.691h-1.691zm0 0"/></g><path data-name="Trazado 1663" d="M52.057 71.282a13.443 13.443 0 008-2.643l6.1 6.1a2.64 2.64 0 003.733-3.733l-6.24-6.24-.108.108a13.517 13.517 0 10-11.483 6.409zm16.635.918a.948.948 0 01-1.341 1.341l-5.992-5.991a13.622 13.622 0 001.285-1.4zM52.057 45.913a11.839 11.839 0 11-11.839 11.839 11.839 11.839 0 0111.839-11.839zm0 0" fill="#fff"/><path data-name="Trazado 1664" d="M52.057 67.9a10.148 10.148 0 10-10.148-10.148A10.148 10.148 0 0052.057 67.9zm0-18.6a8.456 8.456 0 11-8.456 8.456 8.456 8.456 0 018.456-8.456zm0 0" fill="#fff"/><g data-name="Grupo 556"><g data-name="Grupo 554"><path data-name="Trazado 1669" d="M54.992 56.631a.3.3 0 00-.254-.138h-2.266l.751-6.012a.3.3 0 00-.577-.16l-3.63 8.167a.3.3 0 00.277.426h2.266l-.751 6.012a.3.3 0 00.577.16l3.63-8.167a.3.3 0 00-.023-.288z" fill="#fff"/></g></g></g></g></svg>