<svg data-name="Grupo 406" xmlns="http://www.w3.org/2000/svg" width="26.206" height="53.106"><path data-name="Rectángulo 11" fill="#3665a7" d="M0 27.141h12.703v12.7H0z"/><path data-name="Trazado 507" d="M9.253 31.488a2.462 2.462 0 01-.668 1.811 3.528 3.528 0 01-2.59.932 3.764 3.764 0 01-.884-.079v3.4H4.017v-8.364a11.286 11.286 0 012.1-.177 3.48 3.48 0 012.378.7 2.294 2.294 0 01.756 1.778m-1.105.113c0-1.135-.794-1.677-2-1.677a5.442 5.442 0 00-1.034.093v3.293a3.8 3.8 0 00.907.089c1.336 0 2.13-.652 2.13-1.8" fill="#fff"/><path data-name="Rectángulo 12" fill="#3665a7" d="M13.484 26.986H26.19v12.7H13.484z"/><path data-name="Trazado 508" d="M17.693 37.577v-3.622c0-1.41-.013-2.429-.079-3.5l.039-.011a24.811 24.811 0 001.576 2.831l2.69 4.3h1.109v-8.477h-1.035v3.56c0 1.31.028 2.339.127 3.474l-.039.013a23.044 23.044 0 00-1.506-2.756l-2.707-4.291h-1.21v8.479z" fill="#fff"/><path data-name="Rectángulo 13" fill="#3665a7" d="M0 40.406h12.702v12.7H0z"/><path data-name="Trazado 509" d="M3.222 42.518v5c0 2.641 1.309 3.624 3.046 3.624 1.835 0 3.208-1.057 3.208-3.663v-4.961h-1.11v5.035c0 1.859-.818 2.693-2.061 2.693-1.132 0-1.976-.807-1.976-2.693v-5.035z" fill="#fff"/><path data-name="Rectángulo 14" fill="#3665a7" d="M13.484 40.406h12.709v12.7H13.484z"/><path data-name="Trazado 510" d="M23.629 46.507a4.559 4.559 0 01-1.219 3.3 5.279 5.279 0 01-3.762 1.222 16.18 16.18 0 01-2-.1v-8.345a15.8 15.8 0 012.34-.181 4.867 4.867 0 013.439 1.047 3.913 3.913 0 011.206 3.057m-1.156.04c.013-2.028-1.123-3.273-3.436-3.273a6.011 6.011 0 00-1.281.113v6.708a6.776 6.776 0 001.107.052 3.255 3.255 0 003.611-3.6" fill="#fff"/><path data-name="Rectángulo 15" fill="#3665a7" d="M0 0h26.206v26.202H0z"/><path data-name="Trazado 511" d="M19.769 18.658c-.6.161-1.239.215-1.824.414.99-.85.935-2.162 1.592-3.161a10.263 10.263 0 01.629-.849c-.4.807-.228 1.85-.687 2.633a3.513 3.513 0 01-.711.856c.089 0 .172-.084.247-.137a20.411 20.411 0 012.54-1.565 2.427 2.427 0 00.764-.962 3.8 3.8 0 01-2.55 2.771" fill="#fff"/><path data-name="Trazado 512" d="M22.477 13.636c-.367.519-.813 1.006-1.151 1.538a2.9 2.9 0 00-.078-1.337 11.467 11.467 0 01-.608-2.666l.008-.357c.213.959 1.156 1.62 1.1 2.7a2.146 2.146 0 01-.109.711l.02.017.038-.047a11.23 11.23 0 01.428-1.577 3.824 3.824 0 00.539-2.281 3.884 3.884 0 01-.184 3.3" fill="#fff"/><path data-name="Trazado 513" d="M21.894 8.198a3.273 3.273 0 01.3 3.134 5.473 5.473 0 00-.35 1.29 2.731 2.731 0 01-.067-.27c-.247-.938-1.137-1.611-1.506-2.5a4.755 4.755 0 01-.264-.905c.392.723 1.355 1.1 1.616 1.9a3.531 3.531 0 01.169.668s.024-.011.024-.025a9.09 9.09 0 01.036-2.488 2.06 2.06 0 00-.3-1.207c.158.091.229.268.338.4" fill="#fff"/><path data-name="Trazado 514" d="M21.458 8.038c.166.734-.071 1.451.079 2.192l-.008.005c-.4-.786-1.247-1.157-1.829-1.785a2.514 2.514 0 01-.569-1.308c.334.806 1.234.983 1.754 1.66a2.413 2.413 0 01.343.554l.013-.017a14.606 14.606 0 01-.6-2.029 1.578 1.578 0 00-.589-.769 2.034 2.034 0 011.406 1.5" fill="#fff"/><path data-name="Trazado 515" d="M19.642 6.353a3.1 3.1 0 01.9 1.666l.083.2a7.271 7.271 0 01-1.894-2.009l-.581-.587a4.91 4.91 0 011.494.735" fill="#fff"/><path data-name="Trazado 516" d="M7.899 5.716a8.706 8.706 0 00-1.253 1.55 11.044 11.044 0 01-1.164 1.065 7.471 7.471 0 01.514-1.349 3.349 3.349 0 011.9-1.266" fill="#fff"/><path data-name="Trazado 517" d="M5.094 7.284a1.768 1.768 0 01.921-.62c-.689.476-.642 1.328-.864 2.037-.071.263-.193.5-.253.773l.019.012a2.38 2.38 0 01.57-.838c.49-.452 1.219-.734 1.461-1.406a3 3 0 01-1.536 2.189 3.176 3.176 0 00-.771.923c-.02-.237.036-.472.019-.724a2.9 2.9 0 01.435-2.346" fill="#fff"/><path data-name="Trazado 518" d="M3.696 10.067a3.209 3.209 0 01.8-2.114c.009-.007.02-.02.039-.016-.531.806-.09 1.823-.114 2.743l-.071.939c.011.007.011.036.035.024.031-.1.039-.217.06-.326a3.509 3.509 0 011.357-1.819 1.4 1.4 0 00.3-.437 3.9 3.9 0 01-.323 1.108c-.445.873-1.276 1.588-1.424 2.589-.072-.96-.727-1.674-.659-2.69" fill="#fff"/><path data-name="Trazado 519" d="M3.292 11.241a3.682 3.682 0 01.216-.759c-.213 1.086.523 1.875.764 2.821a8.374 8.374 0 00.267 1.066c.012.005.023-.007.036-.019a3.06 3.06 0 01.675-2.724 2.467 2.467 0 00.262-.695 5.768 5.768 0 01-.126 1.449c-.125.6-.311 1.171-.477 1.75a2.791 2.791 0 00-.024 1.16l-.054-.046c-.378-.7-1.135-1.246-1.356-2.019a4.246 4.246 0 01-.182-1.985" fill="#fff"/><path data-name="Trazado 520" d="M3.259 13.369c.082 1.157 1.325 1.768 1.9 2.727a3.163 3.163 0 00.435.575c-.025-.123-.142-.227-.185-.351a2.492 2.492 0 01-.224-1.367 6.874 6.874 0 00.207-1.758c.51 1.09.355 2.453.637 3.637a7.51 7.51 0 00.323.736c-1.042-.708-2.46-1.381-2.921-2.682a3.236 3.236 0 01-.174-1.517" fill="#fff"/><path data-name="Trazado 521" d="M3.881 16.026c.581 1.314 2.033 1.42 3.007 2.221a2.373 2.373 0 00.567.389l.013-.012a3.345 3.345 0 01-.645-.7c-.566-.79-.365-1.9-.791-2.751a6.5 6.5 0 01.975 1.469 5.277 5.277 0 001.283 2.486c-.869-.29-1.892-.207-2.664-.746a3.666 3.666 0 01-1.746-2.357" fill="#fff"/><path data-name="Trazado 522" d="M5.37 18.473c.924 1.058 2.449.7 3.686.982a1.7 1.7 0 00.522.066c-.149-.093-.354-.083-.514-.166-.971-.345-1.113-1.394-1.64-2.1a15.333 15.333 0 011.862 1.634 3.226 3.226 0 001.546.687c-.134.048-.31.036-.46.075a5.739 5.739 0 01-3.224.294 3.134 3.134 0 01-1.778-1.472" fill="#fff"/><path data-name="Trazado 523" d="M17.999 20.939a3.148 3.148 0 01-2.963-.637c-.333-.211-.625-.515-1.054-.486a1.508 1.508 0 00-.44.039 8.148 8.148 0 012.217 1.533 3.453 3.453 0 01-.4.365 7.82 7.82 0 00-2.186-1.769 1.394 1.394 0 00-.451.192 6.636 6.636 0 00-1.792 1.6l-.421-.345a7.647 7.647 0 012.218-1.583c-.8-.252-1.314.414-1.915.754a2.823 2.823 0 01-2.572.382 2.778 2.778 0 01-1.231-.844 2.731 2.731 0 002.429.211 5.329 5.329 0 013.317-.736c.192.005.382.2.562.03a3.974 3.974 0 012.747.346l.817.327a2.7 2.7 0 002.377-.259 2.8 2.8 0 01-1.257.878" fill="#fff"/><path data-name="Trazado 524" d="M19.125 19.855c-1.178.447-2.361-.1-3.491-.279l-.217-.034a3.165 3.165 0 001.5-.672 15.148 15.148 0 011.892-1.709c-.518.664-.574 1.618-1.432 2.048a5.75 5.75 0 01-.707.267 7.023 7.023 0 00.916-.138c1.152-.18 2.472.005 3.278-.976a3.085 3.085 0 01-1.734 1.5" fill="#fff"/><path data-name="Trazado 525" d="M21.26 16.546c-.463.3-.933.585-1.38.929v-.039c.685-1.14.347-2.7.77-3.953l.157-.417c-.086.778.255 1.436.227 2.222a2.519 2.519 0 01-.422 1.266h.039a15.227 15.227 0 01.987-1.326 3.475 3.475 0 001.309-2 3.444 3.444 0 01-1.687 3.318" fill="#fff"/><path data-name="Trazado 526" d="M19.398 9.022a7.019 7.019 0 00-6.3-3.99 7.308 7.308 0 00-3.177.756 7.043 7.043 0 00-.772 12.109 7.052 7.052 0 0010.71-3.967 6.908 6.908 0 00-.461-4.908m.331 2.465a.781.781 0 00.055.359l-1.009.016a.119.119 0 01-.082.031l.028-.039a5.538 5.538 0 00-.532-2.167c-.012-.3-.3-.5-.424-.763-.221-.156-.29-.427-.543-.561-.051-.055-.074-.144-.145-.16l.119-.025a7.428 7.428 0 00.692-.747 6.877 6.877 0 011.84 4.06m-2.846 3.778c-.084-.083-.087-.248-.243-.247-.052 0-.075.046-.075.087 0 .023.007.051-.008.07l-.321-.279c.152-.078.262-.282.378-.428a4.473 4.473 0 00.612-1.332.137.137 0 00.16.008.128.128 0 00.03-.161l-.123-.127a2.73 2.73 0 00.05-.629l.082.025c.323 0 .656.021.97-.011l-.05.055a5.152 5.152 0 01-1.4 3.329c.04-.121-.076-.225-.06-.361m-.822 1.006c-.184-.168.111-.307.169-.464-.03-.158-.212-.253-.353-.3-.064-.04-.048-.123-.051-.181a.55.55 0 00.16-.2l.024.068.428.445a.222.222 0 00.119.232c.048.021.1-.02.141-.007h-.023a5.02 5.02 0 01-.622.52l-.05.067c-.024-.071.115-.1.058-.185m-1.956-5.415c-.055.023-.117.063-.18.031a.4.4 0 00-.233-.156c-.066.016-.111.1-.192.056.126-.135.354-.161.445-.351a.7.7 0 00.043-.278c-.035-.042-.084-.08-.134-.042-.067.115-.228.142-.306.262l-.249-.083a6.705 6.705 0 00-.05-.724 3.27 3.27 0 00.422.084 3.631 3.631 0 011 .455.741.741 0 00-.215.168c0 .063.07.044.1.086l.067-.028c-.107.274-.472.232-.512.52m.3 2.894c-.005.122-.189.119-.271.208-.048-.016-.011-.066 0-.093.082-.068.148-.134.271-.115M16.39 10.4c.114.028.185.162.3.188a1.914 1.914 0 01.2.524c-.1.106-.1.339-.307.3-.046-.115.093-.18.06-.284.035-.028.09-.038.1-.091-.008-.107-.137-.086-.161-.193-.04-.06-.109-.054-.166-.075-.135-.06-.26.27-.3.008.044-.038.068-.086.035-.134-.114-.06-.122-.221-.253-.283a2.674 2.674 0 00-.494-.04c-.111-.021-.236-.094-.315.019-.012.09-.056.161-.07.248a.246.246 0 01-.094-.1c.306-.345.661-.691.984-1.026l.017-.04a4.212 4.212 0 01.467.62c.028.135-.231.275-.008.361m.613 1.85c-.059.192-.054.408-.1.6a.291.291 0 01-.028.1c-.06-.117-.111-.275-.247-.343-.117-.062-.043-.219-.149-.3l-.107-.107a1.465 1.465 0 00.634.047m-1.467-2.962c-.182.211-.424.4-.578.616l-.025-.07a3.054 3.054 0 00-1.571-.638l-.1.015.012-.946-.034-.075a6.235 6.235 0 011.124.236 4.118 4.118 0 011.261.727l.08.036zm-.955 5.17a3.586 3.586 0 01.872.2.246.246 0 00.193-.059c-.016-.115.123-.169.109-.283.06-.1.016-.233.1-.318a.506.506 0 00-.086-.353c-.078-.048-.146.016-.22.024-.082.062-.055.249-.2.212a.143.143 0 01-.152.034c-.012-.019-.038-.02-.028-.044.1-.051.292-.016.306-.184.072-.066.193-.039.267-.121a1.307 1.307 0 01.148-.229.229.229 0 00.02-.111c.019.05.019.114.083.142.08.027.115-.038.15-.093 0-.028.016-.071.052-.043.084.072.208.011.308.019a1.089 1.089 0 01.275-.05 3.129 3.129 0 01-.506 1.087c-.083.107-.162.221-.26.329-.031-.083-.027-.19-.1-.264l-.04.011c-.058.111-.169.208-.156.334-.083.131-.294.019-.418.1-.153.043-.232-.1-.35-.137a4.13 4.13 0 01-.414-.127.067.067 0 01.046-.067m-.657-9a6.528 6.528 0 013.71 1.75l-.121.051a2.871 2.871 0 00-.524.609c-.015-.063-.111-.111-.145-.173a.733.733 0 00-.367-.475c-.138-.021-.169-.227-.338-.164-.141-.119-.314-.032-.451.034v.017a5.243 5.243 0 00-2.209-.671c-.034 0-.06.032-.1.027.042-.028.023-.111.02-.162-.023-.034-.063-.076-.113-.048a.122.122 0 00-.032.084 5.138 5.138 0 00-.007-.966 4.693 4.693 0 00.679.086m-.272 1.4a5.674 5.674 0 011.7.486c.078.123.235.182.256.338-.079.211.282.207.119.424-.011.068.047.11.072.16s-.008.152.063.185c.123.028.176-.139.3-.091a.576.576 0 01.205.495.325.325 0 00.219.232c.2-.062.107.169.248.228.162.02.244.225.421.212a4.575 4.575 0 01.385.424.063.063 0 00.04.068c.086.023.139-.036.209-.04a5 5 0 01.455 1.808l.034.068q-.5-.008-1.023.024a1.109 1.109 0 00-.11-.571.667.667 0 00.06-.359c-.025-.052-.067-.009-.093 0a1.171 1.171 0 00-.184.385.573.573 0 00-.05.5l.039.039-.39-.008c.094-.059-.083-.174.013-.268l.178-.036c.056-.127.2-.223.192-.374a.336.336 0 00.093-.345c-.086-.192.141-.385-.031-.569a.1.1 0 00-.086-.126c-.056-.017-.119 0-.119-.076.03-.05.114-.1.094-.176-.042-.05-.107-.005-.16-.011-.017-.083.142-.173.008-.251-.094-.016-.146.1-.244.059a.107.107 0 01-.034-.144l-.21-.268c-.017-.023-.08.016-.083-.034.016-.207-.239-.325-.251-.528-.076-.068-.012-.2-.114-.256-.058-.044-.119-.093-.2-.06a2.417 2.417 0 00-.308-.361c-.035-.012-.056.011-.079.034.023.1.135.15.13.259a.044.044 0 00-.046.017.529.529 0 00.162.249 4.047 4.047 0 00-1.882-.75 1.082 1.082 0 00-.4-.02c.032-.3.009-.645.015-.972l-.03-.064a1.189 1.189 0 00.414.058m-.583 4.024l.058.031c-.074.007-.157-.04-.219.011-.04.032-.013.09 0 .125.122.051.156.253.325.174.068.015.154.03.178.11.1.039.115.215.252.178-.011.064-.031.18.05.233-.017.059-.1.087-.091.162a.063.063 0 00-.015.083c.129.009.121.161.184.237a.233.233 0 00.089.266.885.885 0 01-.117.322c-.133.071-.359-.1-.409.146-.074.082-.008.267-.16.274a1.108 1.108 0 01-.773-.207c.144-.076.389.027.439-.186a.118.118 0 00.035-.133.729.729 0 00.125-.233c-.052-.054-.03-.083-.016-.145-.144-.146-.341-.07-.522-.064-.111.063-.005.18-.076.259-.142.017-.145.152-.24.231a.178.178 0 01-.1-.153h.016a.051.051 0 00.036.058c.13.02.093-.129.13-.2.025-.084.22-.2.06-.259-.007-.035.023-.08-.021-.1-.051.017-.133.017-.139.089a.136.136 0 01-.055.169h-.027c.012-.039-.019-.068-.051-.084-.079 0-.146.064-.225.046a2.086 2.086 0 01-.351.047c-.015-.067.087-.044.111-.107-.021-.106.052-.166.1-.247a.114.114 0 01.111-.007c.031.03.058.054.1.043l.035-.059c.106.06.044.363.248.231.038-.126 0-.28.059-.4-.044-.11.078-.158.11-.235.109.011.1-.109.148-.165a.668.668 0 00.44-.264c-.04-.087-.013-.213-.083-.283.072-.025.2-.062.252 0m-.161 6.478l-.1-.066a5.521 5.521 0 01-3.384-1.449c.16-.019.22.192.392.138.186-.02.335-.17.531-.138a.3.3 0 00.283-.1c.03-.1-.08-.156-.1-.239a4.042 4.042 0 002.256.844l.082-.035v.923zm-3.656-5.029l-.054-.084a.425.425 0 00.338.032c-.174.055-.111.266-.18.394-.012.062.087.079.072.141-.084.044-.093.135-.13.2a2.9 2.9 0 00-.047-.683m-1.061 1.2c-.094.011-.068.118-.107.168a4.394 4.394 0 00-.135-.728l-.072-.641-.046-.06a9.294 9.294 0 00.972.024l.078-.038a.673.673 0 00.076.515c-.038-.043-.093-.164-.182-.16-.184.007-.193.245-.376.248a.724.724 0 00-.2.463c.067.068-.047.133-.011.209m.715-1.616l-.093-.034-.954.015a5.541 5.541 0 011-2.9l.376-.476.009-.068a6.706 6.706 0 00.735.739 4.222 4.222 0 00-1.112 2.619c.013.038 0 .079.042.1m3.965-4.075a1.912 1.912 0 00-.555.044 4.122 4.122 0 00-2.094 1.062l-.024-.068a6.037 6.037 0 00-.705-.652c.22-.134.421-.329.638-.477a5.384 5.384 0 012.732-.915 6.457 6.457 0 00.008 1.006M11.3 13.105a.055.055 0 00.086.038c.035-.05-.086-.141.005-.172.055.062.024.166.058.241a.184.184 0 01.032.135 2.618 2.618 0 00-.3.341c-.058-.157-.2-.282-.262-.443-.1-.181-.154-.389-.252-.569.083.1.307-.013.307.184a.068.068 0 00.05.008c.031-.035.036-.035.07-.02.016.036.1.055.035.1a.231.231 0 00.168.161m1.037 2.72l.169.079a4.373 4.373 0 01-1.784-.8c-.091-.051-.152-.17-.263-.178a4.988 4.988 0 00.695-.712 1.38 1.38 0 00.439.37c.263.122.541.343.853.282a.623.623 0 00-.263.172c-.047.094-.032.236-.158.276.008.2.189.367.313.508m-2.226-1.231l-.035-.215c-.2-.181-.137-.488-.172-.715-.137-.109-.023-.291-.123-.418 0-.2-.314-.274-.217-.5-.036-.056-.086-.127-.042-.2.063-.072.2.007.243-.1l.025-.184c.074-.047.18.052.219-.052.07-.172-.26-.386.024-.477.094-.008.224-.031.26.084a.785.785 0 01.007.413c.093.036.008.113.008.173-.054.024-.109.083-.174.06-.028-.046-.079-.125-.142-.121-.052.075.02.149.011.235-.019.05-.005.107-.035.141a.137.137 0 00-.086-.021c-.06.034-.02.1 0 .133.06.04.1.1.176.1l.038-.046a3.037 3.037 0 01.05-.31l.1.052a3.555 3.555 0 00.543 1.2l.13.131a8.864 8.864 0 00-.9.915v.008c-.005-.019-.015-.071-.059-.05-.028-.134.194-.1.153-.245m.484-4.132a.809.809 0 00-.235.247c-.082.054-.192.048-.26.141 0 .039.044.086-.008.114-.08.078-.248-.019-.286.129-.016.129-.169.2-.156.343-.087.055-.071.165-.063.252.044.055-.019.16.063.2a.929.929 0 00-.44.019 2.916 2.916 0 00.084-.523 4.125 4.125 0 01.94-1.931 8.346 8.346 0 00.771.72c-.2.005-.2.3-.412.291m2.156 3.777c-.047.083-.007.2-.035.292a2.646 2.646 0 01-1.255-.577 5.4 5.4 0 00.648-.7c.019.113.152.162.243.216a.8.8 0 00.624.123c-.017.015-.031.032-.048.046.06.058-.044.121.025.177.013.046-.044.039-.05.074.035.064-.011.173.09.2a.056.056 0 01-.04.09c-.07-.013-.164-.016-.2.059m-1.128-1.046a.534.534 0 00.146-.227l.115.056c-.107.011-.166.119-.251.178zm.972-2.845c-.02-.047.043-.1-.015-.131-.162.074-.1.251-.213.366-.015.093-.131.047-.186.094a.134.134 0 00-.188-.024c-.083 0-.1-.168-.186-.082-.021.028-.009.091-.075.064-.013-.024-.04-.028-.055-.039-.005-.054.087-.047.055-.11-.063-.111-.2-.1-.284-.178h-.074a2.4 2.4 0 011.491-.7 2.271 2.271 0 00.05.766c-.086-.11-.212.025-.319-.021m.276-1.132a1.691 1.691 0 00-.526.06 3.261 3.261 0 00-1.065.55l-.052.079a9.586 9.586 0 00-.744-.7 4.088 4.088 0 012.33-.988l.058-.034a5.071 5.071 0 000 1.029M9.089 6.739a6.816 6.816 0 013.76-1.333l-.031.1.009.84.036.083a5.544 5.544 0 00-3.572 1.5l-.016.05a5.938 5.938 0 00-.773-.743h-.031c.216-.127.406-.35.616-.5m-2.6 4.528a6.867 6.867 0 011.787-3.816l.028.1c.237.232.471.483.7.692a2.828 2.828 0 00-.468.538 5.693 5.693 0 00-1.05 2.992l.027.137a6.925 6.925 0 00-1.081 0c.046-.216.019-.432.058-.638m.807 4.08a7.142 7.142 0 01-.857-3.067l.97.009.1-.038a.749.749 0 00-.011.2l-.011-.011c-.023.02.021.034.021.054a5.59 5.59 0 00.164 1.062l.048.076a2.147 2.147 0 01-.153-.217.434.434 0 00-.231.087c.04.1-.064.067-.107.094a.157.157 0 00-.068-.067c-.074.007-.15.011-.181.086.009.051-.052.075-.074.118-.02.157-.07.362.044.492a.421.421 0 00.144.294c.035.007.055-.02.078-.032.094.071.142.24.284.209.042-.019.027-.063.042-.094.072.075.109.224.243.212.034.034.051.094.111.1.142-.036.089.169.2.228.084.052.131.18.253.121l.042-.052c.036.027.005.1.039.134a.485.485 0 00.294.224 2.036 2.036 0 00.326.335l-.083.032-.7.723a11.726 11.726 0 01-.928-1.308m4.92 3.313a7.08 7.08 0 01-3.723-1.744l.72-.726.009-.04a5.551 5.551 0 003.565 1.54l.106-.03-.032.054v.946l.05.085a4.552 4.552 0 00-.695-.085m.846-3.957a.389.389 0 01-.2-.024c-.036 0-.023-.04-.036-.06.1 0 .153-.119.262-.1.06-.059.072-.149.16-.18-.025-.093.084-.034.11-.084.032-.03.071-.06.117-.036.07.1.216.058.283.176.036.013.046-.024.043-.048v-.044c.114-.011.168.152.288.044a.089.089 0 000-.1c-.012-.007-.031-.012-.036-.031.082-.036.129.126.229.066.08-.066.135-.149.244-.149l.023.032c.017.211-.16.335-.318.431-.1.039-.287.025-.279.193-.115.1-.224-.068-.368-.02-.067-.036-.005-.134-.1-.148-.146.062-.321-.078-.425.09m.256 1.768c.129.054.347-.052.416.094a.36.36 0 00-.078.249c.05.129.13.3.294.311a.3.3 0 00.152.093 5.669 5.669 0 00-.841.117 6.629 6.629 0 000-.864l-.048-.075c.046.007.076.05.106.075m.012 2.234l-.07.044a7.133 7.133 0 000-1.1 1.641 1.641 0 00.549-.009l.536-.09c.266.051.456.48.75.219.1-.123.276-.111.339-.279.172-.063.215-.24.335-.353.115-.326.488-.374.712-.6.166-.146.386-.268.48-.461l.02.084.735.7a6.78 6.78 0 01-4.387 1.841m6.418-6.4a6.712 6.712 0 01-1.745 4.265l-.025.051a7.207 7.207 0 00-.777-.763 2.4 2.4 0 00.409-.451 5.629 5.629 0 001.108-3.1l-.035-.093.062.039.993-.005.05-.025z" fill="#fff"/><path data-name="Trazado 527" d="M16.196 6.823a.151.151 0 00.024.1c.149.051.165.264.35.216.058-.063-.034-.131-.016-.209a.205.205 0 00-.156-.126c-.075.071-.135-.063-.2.017" fill="#fff"/><path data-name="Trazado 528" d="M13.399 6.229c.189.239.511.106.74.059a.44.44 0 00.455-.121v-.021a.7.7 0 00-.547-.211l-.5.217c-.044-.017-.119-.038-.15.015-.021.02 0 .044.005.062" fill="#fff"/></svg>