<svg xmlns="http://www.w3.org/2000/svg" width="88.202" height="99.804"><g data-name="Grupo 1021"><g data-name="Trazado 1388" fill="#fab102" stroke="#fab102"><path d="M1.5 72.27V27.533c0-1.3.701-2.511 1.83-3.16L42.285 1.985a3.657 3.657 0 013.632 0l38.956 22.388a3.654 3.654 0 011.829 3.16V72.27c0 1.301-.7 2.512-1.829 3.16L45.918 97.82a3.657 3.657 0 01-3.632 0L3.329 75.43a3.654 3.654 0 01-1.828-3.16z"/><path d="M85.203 27.533a2.15 2.15 0 00-1.076-1.859L45.171 3.285a2.152 2.152 0 00-2.138 0L4.077 25.674A2.15 2.15 0 003 27.534V72.27a2.15 2.15 0 001.076 1.86l38.956 22.388c.66.38 1.478.38 2.138 0L84.127 74.13a2.15 2.15 0 001.076-1.86V27.533m3 0V72.27a5.145 5.145 0 01-2.581 4.46L46.665 99.12a5.145 5.145 0 01-5.127 0L2.582 76.73a5.145 5.145 0 01-2.581-4.46V27.533c0-1.841.984-3.542 2.581-4.46L41.538.684a5.145 5.145 0 015.127 0l38.957 22.389a5.145 5.145 0 012.581 4.46z" fill="#fff"/></g><g data-name="Grupo 563"><g data-name="Grupo 492"><g data-name="Grupo 491"><path data-name="Trazado 1579" d="M24.865 47.087a.821.821 0 00-.821.821v13.13a.821.821 0 101.641 0v-13.13a.821.821 0 00-.82-.821z" fill="#fff"/></g></g><g data-name="Grupo 494"><g data-name="Grupo 493"><path data-name="Trazado 1580" d="M21.568 60.886l-2.462-13.13a.821.821 0 10-1.625.233q0 .035.013.069l2.462 13.13a.82.82 0 101.612-.3z" fill="#fff"/></g></g><g data-name="Grupo 496"><g data-name="Grupo 495"><path data-name="Trazado 1581" d="M31.621 47.073a.821.821 0 00-.985.614l-.013.069-2.462 13.13a.82.82 0 101.612.3l2.462-13.13a.821.821 0 00-.614-.983z" fill="#fff"/></g></g><g data-name="Grupo 498"><g data-name="Grupo 497"><path data-name="Trazado 1582" d="M40.085 43.805a15.181 15.181 0 10-29.8-5.794 28.314 28.314 0 000 5.794l.412 1.641s.429 1.229.7 1.82l6.086 18.009v4.789a2.462 2.462 0 002.454 2.459h1.758a3.267 3.267 0 006.332 0h1.758a2.462 2.462 0 002.462-2.462v-4.773L38.709 47.8c.382-.757.954-2.354.954-2.354zm-15.22 29.542a1.641 1.641 0 01-1.42-.821h2.841a1.641 1.641 0 01-1.421.821zm5.744-3.282a.821.821 0 01-.821.821h-9.851a.821.821 0 01-.821-.821v-.821h11.489zm0-2.462H19.12v-1.642h11.489zm6.619-20.506a.905.905 0 00-.039.09l-6.334 17.136H18.889l-5.952-17.624a1.169 1.169 0 00-.033-.082 14.684 14.684 0 01-.472-1.171h25.505a13.68 13.68 0 01-.709 1.65zm1.187-3.291H11.959a13.463 13.463 0 011.817-10.165 13.54 13.54 0 0124.639 10.167z" fill="#fff"/></g></g><g data-name="Grupo 500"><g data-name="Grupo 499"><path data-name="Trazado 1583" d="M21.044 30.83a11.449 11.449 0 00-2.393 1.429l1 1.3a9.912 9.912 0 012.052-1.225z" fill="#fff"/></g></g><g data-name="Grupo 502"><g data-name="Grupo 501"><path data-name="Trazado 1584" d="M17.005 33.82a11.489 11.489 0 00-2.809 7.527h1.641a9.842 9.842 0 012.407-6.451z" fill="#fff"/></g></g><g data-name="Grupo 561"><g data-name="Grupo 560" fill="#fff"><path data-name="Trazado 1670" d="M54.571 58.655a.651.651 0 00.651.651h2.6a.651.651 0 00.651-.651v-3.906a.651.651 0 00-.651-.651h-2.6a.651.651 0 00-.651.651v3.906zm1.3-3.255h1.3V58h-1.3z"/><path data-name="Trazado 1671" d="M55.222 51.495h2.6a.651.651 0 00.651-.651v-3.906a.651.651 0 00-.651-.651h-2.6a.651.651 0 00-.651.651v3.906a.651.651 0 00.651.651zm.651-3.906h1.3v2.6h-1.3z"/><path data-name="Trazado 1672" d="M50.35 46.845l9.429-5.657 9.429 5.657a.651.651 0 00.671-1.116l-9.449-5.668v-4.19h3.255v1.3h-1.953a.651.651 0 100 1.3h2.6a.651.651 0 00.651-.651v-2.598a.651.651 0 00-.648-.651h-4.556a.651.651 0 00-.651.651v4.839L49.68 45.73a.651.651 0 00.67 1.116z"/><path data-name="Trazado 1673" d="M47.412 59.306a.651.651 0 00.651-.651v-3.906a.651.651 0 00-.651-.651h-2.6a.651.651 0 00-.651.651v1.3a.651.651 0 101.3 0v-.651h1.3v3.255a.651.651 0 00.651.653z"/><path data-name="Trazado 1674" d="M51.968 67.768V48.891a.651.651 0 00-1.3 0v18.877a.651.651 0 001.3 0z"/><path data-name="Trazado 1675" d="M48.713 71.023h22.131a.651.651 0 100-1.3h-5.858v-6.515h.651a.651.651 0 000-1.3H53.92a.651.651 0 000 1.3h.651v6.509h-5.858a.651.651 0 000 1.3zm11.717-3.906a.651.651 0 100-1.3v-2.6h3.255v6.509H60.43zm-4.556-3.905h3.255v2.6a.651.651 0 000 1.3v2.6h-3.255z"/><path data-name="Trazado 1676" d="M74.75 62.561h-2.6a.651.651 0 00-.651.651v3.906a.651.651 0 00.651.651h2.6a.651.651 0 00.651-.651v-3.906a.651.651 0 00-.651-.651zm-.651 3.906h-1.3v-2.6h1.3z"/><path data-name="Trazado 1677" d="M74.75 54.75h-2.6a.651.651 0 00-.651.651v3.906a.651.651 0 00.651.651h2.6a.651.651 0 00.651-.651v-3.906a.651.651 0 00-.651-.651zm-.651 3.906h-1.3v-2.6h1.3z"/><path data-name="Trazado 1678" d="M73.448 72.325H46.109a.651.651 0 000 1.3h27.339a.651.651 0 100-1.3z"/><path data-name="Trazado 1679" d="M78.66 48.891a.651.651 0 00-.651.651v.651h-7.16a.651.651 0 000 1.3h7.16v21.481a.651.651 0 101.3 0V49.542a.651.651 0 00-.649-.651z"/><path data-name="Trazado 1680" d="M61.081 58.655a.651.651 0 00.651.651h2.6a.651.651 0 00.651-.651v-3.906a.651.651 0 00-.651-.651h-2.6a.651.651 0 00-.651.651zm1.3-3.255h1.3V58h-1.3z"/><path data-name="Trazado 1681" d="M46.76 66.466c0-.085-.037-8.462-3.255-8.462s-3.254 8.377-3.254 8.462a3.26 3.26 0 002.6 3.189v3.32a.651.651 0 001.3 0v-3.32a3.26 3.26 0 002.609-3.189zm-3.255 1.953a1.955 1.955 0 01-1.954-1.953c0-3.243.871-7.16 1.953-7.16s1.953 3.917 1.953 7.16a1.955 1.955 0 01-1.951 1.953z"/><path data-name="Trazado 1682" d="M68.889 67.768V48.24a.651.651 0 10-1.3 0v19.528a.651.651 0 101.3 0z"/><path data-name="Trazado 1683" d="M61.732 51.495h2.6a.651.651 0 00.651-.651v-3.906a.651.651 0 00-.651-.651h-2.6a.651.651 0 00-.651.651v3.906a.651.651 0 00.651.651zm.651-3.906h1.3v2.6h-1.3z"/><path data-name="Trazado 1684" d="M40.902 57.356a.651.651 0 00.651-.651v-5.207h7.16a.651.651 0 000-1.3h-7.162v-.651a.651.651 0 00-1.3 0v7.16a.651.651 0 00.651.649z"/></g></g></g></g></svg>